<svg width="150" height="30" viewBox="0 0 150 30" fill="none" xmlns="http://www.w3.org/2000/svg">
<g clip-path="url(#clip0_4494_98867)">
<path d="M53.4621 22.3478L37.0243 10.3621V22.3478H34.4844V6.95139H37.0012L52.3433 18.3896V6.95139H54.8832V22.3499H53.46L53.4621 22.3478Z" fill="white"/>
<path d="M57.8125 22.348V6.9516H60.7239V22.3501H57.8125V22.348Z" fill="white"/>
<path d="M84.3662 22.348V11.5642L76.5304 22.348H74.1437L66.2869 11.5873V22.348H63.5938V6.9516H66.3079L75.4577 19.5289L84.5635 6.9516H87.0593V22.3501H84.3662V22.348Z" fill="white"/>
<path d="M89.8242 22.348V6.95158H102.366C105.781 6.95158 107.093 8.22064 107.093 10.2763V11.6985C107.093 13.0326 106.371 14.0394 105.278 14.2576C106.438 14.5638 107.291 15.2854 107.291 16.7726V19.0254C107.291 20.7748 106.218 22.3501 102.41 22.3501H89.8242V22.348ZM104.182 10.4294C104.182 9.57569 103.722 9.22749 102.364 9.22749H92.7335V13.2297H102.364C103.722 13.2297 104.182 12.8794 104.182 12.0278V10.4315V10.4294ZM104.379 16.8145C104.379 15.8517 103.569 15.5014 102.41 15.5014H92.7356V20.0721H102.41C103.571 20.0721 104.379 19.7218 104.379 18.4758V16.8145Z" fill="white"/>
<path d="M114.664 22.348C111.163 22.348 109.828 20.8398 109.828 18.6289V6.94943H112.74V18.6499C112.74 19.5686 113.352 20.0721 114.666 20.0721H124.232C125.546 20.0721 126.159 19.5686 126.159 18.6499V6.94943H129.07V18.6289C129.07 20.8377 128.348 22.348 124.847 22.348H114.669H114.664Z" fill="white"/>
<path d="M131.769 22.3481V20.0743H145.164C146.478 20.0743 147.091 19.5709 147.091 18.6521V16.7056C147.091 15.7868 146.478 15.2834 145.164 15.2834H136.102C132.601 15.2834 131.266 13.7752 131.266 11.5643V10.6665C131.266 8.45776 132.601 6.94748 136.102 6.94748H149.148V9.22129H136.102C134.788 9.22129 134.175 9.72471 134.175 10.6435V11.5832C134.175 12.5019 134.788 13.0054 136.102 13.0054H145.164C148.665 13.0054 150 14.5136 150 16.7244V18.627C150 20.8357 148.665 22.346 145.164 22.346H131.769V22.3481Z" fill="white"/>
<path d="M0.722082 7.0957L1.08312 7.30337L1.44416 7.51313V7.92845V8.34588L1.08312 8.55354L0.722082 8.7612L0.361041 8.55354L0 8.34588V7.92845V7.51313L0.361041 7.30337L0.722082 7.0957Z" fill="white"/>
<mask id="mask0_4494_98867" style="mask-type:luminance" maskUnits="userSpaceOnUse" x="0" y="7" width="2" height="2">
<path d="M0.722082 7.0957L1.08312 7.30337L1.44416 7.51313V7.92845V8.34588L1.08312 8.55354L0.722082 8.7612L0.361041 8.55354L0 8.34588V7.92845V7.51313L0.361041 7.30337L0.722082 7.0957Z" fill="white"/>
</mask>
<g mask="url(#mask0_4494_98867)">
<path d="M0 8.83961V8.70117H1.44416V8.83961" fill="white"/>
<path d="M0 8.74586V8.60742H1.44416V8.74586" fill="white"/>
<path d="M0 8.65407V8.51562H1.44416V8.65407" fill="white"/>
<path d="M0 8.56227V8.42383H1.44416V8.56227" fill="white"/>
<path d="M0 8.47047V8.33203H1.44416V8.47047" fill="white"/>
<path d="M0 8.37853V8.24219H1.44416V8.37853" fill="white"/>
<path d="M0 8.28688V8.14844H1.44416V8.28688" fill="white"/>
<path d="M0 8.19508V8.05664H1.44416V8.19508" fill="white"/>
<path d="M0 8.10329V7.96484H1.44416V8.10329" fill="white"/>
<path d="M0 8.01149V7.87305H1.44416V8.01149" fill="white"/>
<path d="M0.00012207 7.91796V7.77952H1.44429V7.91796" fill="white"/>
<path d="M0 7.82594V7.6875H1.44416V7.82594" fill="white"/>
<path d="M0 7.73415V7.5957H1.44416V7.73415" fill="white"/>
<path d="M0 7.64025V7.50391H1.44416V7.64025" fill="white"/>
<path d="M0 7.54845V7.41211H1.44416V7.54845" fill="white"/>
<path d="M0.00012207 7.45858V7.32014H1.44429V7.45858" fill="white"/>
<path d="M0 7.36696V7.22852H1.44416V7.36696" fill="white"/>
<path d="M0 7.27321V7.13477H1.44416V7.27321" fill="white"/>
<path d="M0 7.18171V7.0957H1.44416V7.18171" fill="white"/>
</g>
<path d="M25.265 7.0957L25.6261 7.30337L25.9871 7.51313V7.92845V8.34588L25.6261 8.55354L25.265 8.7612L24.904 8.55354L24.543 8.34588V7.92845V7.51313L24.904 7.30337L25.265 7.0957Z" fill="white"/>
<mask id="mask1_4494_98867" style="mask-type:luminance" maskUnits="userSpaceOnUse" x="24" y="7" width="2" height="2">
<path d="M25.265 7.0957L25.6261 7.30337L25.9871 7.51313V7.92845V8.34588L25.6261 8.55354L25.265 8.7612L24.904 8.55354L24.543 8.34588V7.92845V7.51313L24.904 7.30337L25.265 7.0957Z" fill="white"/>
</mask>
<g mask="url(#mask1_4494_98867)">
<path d="M24.543 8.83961V8.70117H25.9871V8.83961" fill="white"/>
<path d="M24.543 8.74586V8.60742H25.9871V8.74586" fill="white"/>
<path d="M24.543 8.65392V8.51758H25.9871V8.65392" fill="white"/>
<path d="M24.543 8.56422V8.42578H25.9871V8.56422" fill="white"/>
<path d="M24.543 8.47243V8.33398H25.9871V8.47243" fill="white"/>
<path d="M24.543 8.38063V8.24219H25.9871V8.38063" fill="white"/>
<path d="M24.543 8.28688V8.14844H25.9871V8.28688" fill="white"/>
<path d="M24.543 8.19508V8.05664H25.9871V8.19508" fill="white"/>
<path d="M24.543 8.10329V7.96484H25.9871V8.10329" fill="white"/>
<path d="M24.543 8.01149V7.87305H25.9871V8.01149" fill="white"/>
<path d="M24.543 7.91759V7.78125H25.9871V7.91759" fill="white"/>
<path d="M24.543 7.82566V7.68932H25.9871V7.82566" fill="white"/>
<path d="M24.543 7.7361V7.59766H25.9871V7.7361" fill="white"/>
<path d="M24.543 7.64235V7.50391H25.9871V7.64235" fill="white"/>
<path d="M24.543 7.55055V7.41211H25.9871V7.55055" fill="white"/>
<path d="M24.543 7.45858V7.32014H25.9871V7.45858" fill="white"/>
<path d="M24.543 7.36696V7.22852H25.9871V7.36696" fill="white"/>
<path d="M24.543 7.27321V7.13477H25.9871V7.27321" fill="white"/>
<path d="M24.543 7.18171V7.0957H25.9871V7.18171" fill="white"/>
</g>
<path d="M0.722082 21.2539L1.08312 21.4616L1.44416 21.6692V22.0867V22.5041L1.08312 22.7117L0.722082 22.9194L0.361041 22.7117L0 22.5041V22.0867V21.6692L0.361041 21.4616L0.722082 21.2539Z" fill="white"/>
<mask id="mask2_4494_98867" style="mask-type:luminance" maskUnits="userSpaceOnUse" x="0" y="21" width="2" height="2">
<path d="M0.722082 21.2539L1.08312 21.4616L1.44416 21.6692V22.0867V22.5041L1.08312 22.7117L0.722082 22.9194L0.361041 22.7117L0 22.5041V22.0867V21.6692L0.361041 21.4616L0.722082 21.2539Z" fill="white"/>
</mask>
<g mask="url(#mask2_4494_98867)">
<path d="M0 22.919V22.875H1.44416V22.919" fill="white"/>
<path d="M0 22.9216V22.7832H1.44416V22.9216" fill="white"/>
<path d="M0.00012207 22.8297V22.6913H1.44429V22.8297" fill="white"/>
<path d="M0 22.7381V22.5996H1.44416V22.7381" fill="white"/>
<path d="M0 22.6443V22.5059H1.44416V22.6443" fill="white"/>
<path d="M0 22.5525V22.4141H1.44416V22.5525" fill="white"/>
<path d="M0.00012207 22.4605V22.3221H1.44429V22.4605" fill="white"/>
<path d="M0 22.3689V22.2305H1.44416V22.3689" fill="white"/>
<path d="M0 22.277V22.1406H1.44416V22.277" fill="white"/>
<path d="M0 22.1853V22.0469H1.44416V22.1853" fill="white"/>
<path d="M0 22.0937V21.9553H1.44416V22.0937" fill="white"/>
<path d="M0 22.0017V21.8633H1.44416V22.0017" fill="white"/>
<path d="M0 21.9099V21.7715H1.44416V21.9099" fill="white"/>
<path d="M0 21.8162V21.6777H1.44416V21.8162" fill="white"/>
<path d="M0 21.7244V21.5859H1.44416V21.7244" fill="white"/>
<path d="M0 21.6326V21.4941H1.44416V21.6326" fill="white"/>
<path d="M0 21.5406V21.4043H1.44416V21.5406" fill="white"/>
<path d="M0 21.4469V21.3105H1.44416V21.4469" fill="white"/>
<path d="M0 21.3572V21.2188H1.44416V21.3572" fill="white"/>
<path d="M0 21.2644V21.2539H1.44416V21.2644" fill="white"/>
</g>
<path d="M25.265 21.2539L25.6261 21.4616L25.9871 21.6692V22.0867V22.5041L25.6261 22.7117L25.265 22.9194L24.904 22.7117L24.543 22.5041V22.0867V21.6692L24.904 21.4616L25.265 21.2539Z" fill="white"/>
<mask id="mask3_4494_98867" style="mask-type:luminance" maskUnits="userSpaceOnUse" x="24" y="21" width="2" height="2">
<path d="M25.265 21.2539L25.6261 21.4616L25.9871 21.6692V22.0867V22.5041L25.6261 22.7117L25.265 22.9194L24.904 22.7117L24.543 22.5041V22.0867V21.6692L24.904 21.4616L25.265 21.2539Z" fill="white"/>
</mask>
<g mask="url(#mask3_4494_98867)">
<path d="M24.543 22.919V22.875H25.9871V22.919" fill="white"/>
<path d="M24.543 22.9216V22.7832H25.9871V22.9216" fill="white"/>
<path d="M24.543 22.8297V22.6913H25.9871V22.8297" fill="white"/>
<path d="M24.543 22.7381V22.5996H25.9871V22.7381" fill="white"/>
<path d="M24.543 22.6443V22.5059H25.9871V22.6443" fill="white"/>
<path d="M24.543 22.5524V22.416H25.9871V22.5524" fill="white"/>
<path d="M24.543 22.4629V22.3244H25.9871V22.4629" fill="white"/>
<path d="M24.543 22.3709V22.2324H25.9871V22.3709" fill="white"/>
<path d="M24.543 22.2791V22.1406H25.9871V22.2791" fill="white"/>
<path d="M24.543 22.1853V22.0469H25.9871V22.1853" fill="white"/>
<path d="M24.543 22.0937V21.9553H25.9871V22.0937" fill="white"/>
<path d="M24.543 22.0017V21.8633H25.9871V22.0017" fill="white"/>
<path d="M24.543 21.9099V21.7715H25.9871V21.9099" fill="white"/>
<path d="M24.543 21.816V21.6797H25.9871V21.816" fill="white"/>
<path d="M24.543 21.7243V21.5879H25.9871V21.7243" fill="white"/>
<path d="M24.543 21.6343V21.4959H25.9871V21.6343" fill="white"/>
<path d="M24.543 21.5427V21.4043H25.9871V21.5427" fill="white"/>
<path d="M24.543 21.449V21.3105H25.9871V21.449" fill="white"/>
<path d="M24.543 21.3572V21.2188H25.9871V21.3572" fill="white"/>
<path d="M24.543 21.2644V21.2539H25.9871V21.2644" fill="white"/>
</g>
<path d="M12.9907 13.4766L14.3194 14.2422V15.7734L12.9907 16.5391L11.6641 15.7734V14.2422L12.9907 13.4766Z" fill="white"/>
<mask id="mask4_4494_98867" style="mask-type:luminance" maskUnits="userSpaceOnUse" x="11" y="13" width="4" height="4">
<path d="M12.9907 13.4766L14.3194 14.2422V15.7734L12.9907 16.5391L11.6641 15.7734V14.2422L12.9907 13.4766Z" fill="white"/>
</mask>
<g mask="url(#mask4_4494_98867)">
<path d="M11.6641 16.5401V16.5254H14.3194V16.5401" fill="white"/>
<path d="M11.6641 16.5701V16.4316H14.3194V16.5701" fill="white"/>
<path d="M11.6641 16.4785V16.34H14.3194V16.4785" fill="white"/>
<path d="M11.6641 16.3865V16.248H14.3194V16.3865" fill="white"/>
<path d="M11.6641 16.2947V16.1562L14.3194 16.1583V16.2947" fill="white"/>
<path d="M11.6641 16.2008V16.0645H14.3194V16.2008" fill="white"/>
<path d="M11.6642 16.1112V15.9727H14.3195V16.1112" fill="white"/>
<path d="M11.6641 16.0191V15.8807H14.3194V16.0191" fill="white"/>
<path d="M11.6641 15.9275V15.7891H14.3194V15.9275" fill="white"/>
<path d="M11.6641 15.8338V15.6953H14.3194V15.8338" fill="white"/>
<path d="M11.6642 15.742V15.6035H14.3195V15.742" fill="white"/>
<path d="M11.6641 15.65V15.5115H14.3194V15.65" fill="white"/>
<path d="M11.6641 15.5584V15.4199H14.3194V15.5584" fill="white"/>
<path d="M11.6641 15.4645V15.3281H14.3194V15.4645" fill="white"/>
<path d="M11.6641 15.3727V15.2363H14.3194V15.3748" fill="white"/>
<path d="M11.6641 15.283V15.1445H14.3194V15.283" fill="white"/>
<path d="M11.6641 15.1912V15.0527H14.3194V15.1912" fill="white"/>
<path d="M11.6641 15.0974V14.959H14.3194V15.0974" fill="white"/>
<path d="M11.6641 15.0054V14.867H14.3194V15.0054" fill="white"/>
<path d="M11.6641 14.9138V14.7754H14.3194V14.9138" fill="white"/>
<path d="M11.6641 14.8201V14.6816H14.3194V14.8201" fill="white"/>
<path d="M11.6641 14.7281V14.5918H14.3194V14.7281" fill="white"/>
<path d="M11.6642 14.6365V14.5002H14.3195V14.6365" fill="white"/>
<path d="M11.6641 14.5466V14.4082H14.3194V14.5466" fill="white"/>
<path d="M11.6641 14.4548V14.3164H14.3194V14.4548" fill="white"/>
<path d="M11.6641 14.3611V14.2227H14.3194V14.3611" fill="white"/>
<path d="M11.6642 14.2695V14.131H14.3195V14.2695" fill="white"/>
<path d="M11.6641 14.1775V14.0391H14.3194V14.1775" fill="white"/>
<path d="M11.6641 14.0857V13.9473H14.3194V14.0857" fill="white"/>
<path d="M11.6641 13.992V13.8535L14.3194 13.8556V13.992" fill="white"/>
<path d="M11.6641 13.9V13.7637H14.3194V13.9" fill="white"/>
<path d="M11.6642 13.8101V13.6716H14.3195V13.8101" fill="white"/>
<path d="M11.6641 13.7166V13.5781H14.3194V13.7166" fill="white"/>
<path d="M11.6641 13.6248V13.4863H14.3194V13.6248" fill="white"/>
<path d="M11.6641 13.5332V13.4766H14.3194V13.5332" fill="white"/>
</g>
<path d="M0.722082 11.7441L1.08312 11.9518L1.44416 12.1616V12.5769V12.9943L1.08312 13.202L0.722082 13.4096L0.361041 13.202L0 12.9943V12.5769V12.1616L0.361041 11.9518L0.722082 11.7441Z" fill="white"/>
<mask id="mask5_4494_98867" style="mask-type:luminance" maskUnits="userSpaceOnUse" x="0" y="11" width="2" height="3">
<path d="M0.722082 11.7441L1.08312 11.9518L1.44416 12.1616V12.5769V12.9943L1.08312 13.202L0.722082 13.4096L0.361041 13.202L0 12.9943V12.5769V12.1616L0.361041 11.9518L0.722082 11.7441Z" fill="white"/>
</mask>
<g mask="url(#mask5_4494_98867)">
<path d="M0 13.4092V13.3945H1.44416V13.4092" fill="white"/>
<path d="M0 13.4412V13.3027H1.44416V13.4412" fill="white"/>
<path d="M0.00012207 13.3492V13.2108H1.44429V13.3492" fill="white"/>
<path d="M0 13.2576V13.1191H1.44416V13.2576" fill="white"/>
<path d="M0 13.1638V13.0254H1.44416V13.1638" fill="white"/>
<path d="M0 13.072V12.9336L1.44416 12.9357V13.072" fill="white"/>
<path d="M0 12.9803V12.8439H1.44416V12.9803" fill="white"/>
<path d="M0 12.8904V12.752H1.44416V12.8904" fill="white"/>
<path d="M0 12.7986V12.6602H1.44416V12.7986" fill="white"/>
<path d="M0 12.7048V12.5664H1.44416V12.7048" fill="white"/>
<path d="M0 12.6132V12.4748H1.44416V12.6132" fill="white"/>
<path d="M0 12.5213V12.3828H1.44416V12.5213" fill="white"/>
<path d="M0 12.4295V12.291H1.44416V12.4295" fill="white"/>
<path d="M0 12.3357V12.1973H1.44416V12.3357" fill="white"/>
<path d="M0.00012207 12.2438V12.1075H1.44429V12.2438" fill="white"/>
<path d="M0 12.1539V12.0154H1.44416V12.1539" fill="white"/>
<path d="M0 12.0623V11.9238H1.44416V12.0623" fill="white"/>
<path d="M0 11.9685V11.8301H1.44416V11.9685" fill="white"/>
<path d="M0 11.8767V11.7383H1.44416V11.8767" fill="white"/>
<path d="M0 11.784V11.7441H1.44416V11.784" fill="white"/>
</g>
<path d="M0.722082 16.4531L1.08312 16.6629L1.44416 16.8705V17.2859V17.7033L1.08312 17.911L0.722082 18.1186L0.361041 17.911L0 17.7033V17.2859V16.8705L0.361041 16.6629L0.722082 16.4531Z" fill="white"/>
<mask id="mask6_4494_98867" style="mask-type:luminance" maskUnits="userSpaceOnUse" x="0" y="16" width="2" height="3">
<path d="M0.722082 16.4531L1.08312 16.6629L1.44416 16.8705V17.2859V17.7033L1.08312 17.911L0.722082 18.1186L0.361041 17.911L0 17.7033V17.2859V16.8705L0.361041 16.6629L0.722082 16.4531Z" fill="white"/>
</mask>
<g mask="url(#mask6_4494_98867)">
<path d="M0 18.1173V18.0879H1.44416V18.1173" fill="white"/>
<path d="M0 18.1345V17.9961H1.44416V18.1345" fill="white"/>
<path d="M0.00012207 18.0426V17.9042H1.44429V18.0426" fill="white"/>
<path d="M0 17.9509V17.8125H1.44416V17.9509" fill="white"/>
<path d="M0 17.8572V17.7188H1.44416V17.8572" fill="white"/>
<path d="M0 17.7654V17.627H1.44416V17.7654" fill="white"/>
<path d="M0 17.6736V17.5373H1.44416V17.6736" fill="white"/>
<path d="M0 17.5817V17.4453H1.44416V17.5817" fill="white"/>
<path d="M0 17.492V17.3535H1.44416V17.492" fill="white"/>
<path d="M0 17.3982V17.2598H1.44416V17.3982" fill="white"/>
<path d="M0 17.3066V17.1682H1.44416V17.3066" fill="white"/>
<path d="M0 17.2146V17.0762H1.44416V17.2146" fill="white"/>
<path d="M0 17.1228V16.9844H1.44416V17.1228" fill="white"/>
<path d="M0 17.0291V16.8906H1.44416V17.0291" fill="white"/>
<path d="M0 16.9373V16.7988L1.44416 16.8009V16.9373" fill="white"/>
<path d="M0 16.8451V16.7088H1.44416V16.8451" fill="white"/>
<path d="M0 16.7556V16.6172H1.44416V16.7556" fill="white"/>
<path d="M0 16.6619V16.5234H1.44416V16.6619" fill="white"/>
<path d="M0 16.5701V16.4316H1.44416V16.5701" fill="white"/>
<path d="M0 16.4783V16.4531H1.44416V16.4783" fill="white"/>
</g>
<path d="M8.90865 11.0469L10.2353 11.8125V13.3438L8.90865 14.1094L7.58203 13.3438V11.8125L8.90865 11.0469Z" fill="white"/>
<mask id="mask7_4494_98867" style="mask-type:luminance" maskUnits="userSpaceOnUse" x="7" y="11" width="4" height="4">
<path d="M8.90865 11.0469L10.2353 11.8125V13.3438L8.90865 14.1094L7.58203 13.3438V11.8125L8.90865 11.0469Z" fill="white"/>
</mask>
<g mask="url(#mask7_4494_98867)">
<path d="M7.58203 14.1094V14.1324H10.2353V14.1094" fill="white"/>
<path d="M7.58203 14.1775V14.0391H10.2353V14.1775" fill="white"/>
<path d="M7.58203 14.0857V13.9473H10.2353V14.0857" fill="white"/>
<path d="M7.58203 13.9939V13.8555H10.2353V13.9939" fill="white"/>
<path d="M7.58203 13.9V13.7637H10.2353V13.9" fill="white"/>
<path d="M7.58203 13.8084V13.6721H10.2353V13.8105" fill="white"/>
<path d="M7.58203 13.7185V13.5801H10.2353V13.7185" fill="white"/>
<path d="M7.58203 13.6267V13.4883H10.2353V13.6267" fill="white"/>
<path d="M7.58203 13.533V13.3945H10.2353V13.533" fill="white"/>
<path d="M7.58203 13.4412V13.3027H10.2353V13.4412" fill="white"/>
<path d="M7.58203 13.3494V13.2109H10.2353V13.3494" fill="white"/>
<path d="M7.58203 13.2576V13.1191H10.2353V13.2576" fill="white"/>
<path d="M7.58203 13.1658V13.0273L10.2353 13.0294V13.1658" fill="white"/>
<path d="M7.58203 13.0719V12.9355H10.2353V13.0719" fill="white"/>
<path d="M7.58203 12.9821V12.8437H10.2353V12.9821" fill="white"/>
<path d="M7.58203 12.8904V12.752H10.2353V12.8904" fill="white"/>
<path d="M7.58203 12.7966V12.6582H10.2353V12.7966" fill="white"/>
<path d="M7.58203 12.7048V12.5664H10.2353V12.7048" fill="white"/>
<path d="M7.58203 12.6129V12.4745H10.2353V12.6129" fill="white"/>
<path d="M7.58203 12.5213V12.3828H10.2353V12.5213" fill="white"/>
<path d="M7.58203 12.4275V12.2891H10.2353V12.4275" fill="white"/>
<path d="M7.58203 12.3356V12.1992H10.2353V12.3356" fill="white"/>
<path d="M7.58203 12.244V12.1076H10.2353V12.2461" fill="white"/>
<path d="M7.58203 12.1541V12.0156H10.2353V12.1541" fill="white"/>
<path d="M7.58203 12.0623V11.9238H10.2353V12.0623" fill="white"/>
<path d="M7.58203 11.9685V11.8301H10.2353V11.9685" fill="white"/>
<path d="M7.58203 11.8769V11.7385H10.2353V11.8769" fill="white"/>
<path d="M7.58203 11.7849V11.6465H10.2353V11.7849" fill="white"/>
<path d="M7.58203 11.6931V11.5547H10.2353V11.6931" fill="white"/>
<path d="M7.58203 11.5992V11.4629H10.2353V11.5992" fill="white"/>
<path d="M7.58203 11.5075V11.3711H10.2353V11.5075" fill="white"/>
<path d="M7.58203 11.4175V11.2791H10.2353V11.4175" fill="white"/>
<path d="M7.58203 11.3259V11.1875H10.2353V11.3259" fill="white"/>
<path d="M7.58203 11.2322V11.0938H10.2353V11.2322" fill="white"/>
<path d="M7.58203 11.1404V11.002H10.2353V11.1404" fill="white"/>
<path d="M7.58203 11.049V11.0469H10.2353V11.049" fill="white"/>
</g>
<path d="M8.90958 16.4531L9.27062 16.6629L9.63166 16.8705V17.2859V17.7033L9.27062 17.911L8.90958 18.1186L8.54854 17.911L8.1875 17.7033V17.2859V16.8705L8.54854 16.6629L8.90958 16.4531Z" fill="white"/>
<mask id="mask8_4494_98867" style="mask-type:luminance" maskUnits="userSpaceOnUse" x="8" y="16" width="2" height="3">
<path d="M8.90958 16.4531L9.27062 16.6629L9.63166 16.8705V17.2859V17.7033L9.27062 17.911L8.90958 18.1186L8.54854 17.911L8.1875 17.7033V17.2859V16.8705L8.54854 16.6629L8.90958 16.4531Z" fill="white"/>
</mask>
<g mask="url(#mask8_4494_98867)">
<path d="M8.1875 18.1173V18.0879H9.63166V18.1173" fill="white"/>
<path d="M8.1875 18.1345V17.9961H9.63166V18.1345" fill="white"/>
<path d="M8.18738 18.0426V17.9042H9.63154V18.0426" fill="white"/>
<path d="M8.1875 17.9509V17.8125H9.63166V17.9509" fill="white"/>
<path d="M8.1875 17.8572V17.7188H9.63166V17.8572" fill="white"/>
<path d="M8.1875 17.7652V17.6289H9.63166V17.7652" fill="white"/>
<path d="M8.1875 17.6736V17.5373H9.63166V17.6736" fill="white"/>
<path d="M8.1875 17.5838V17.4453H9.63166V17.5838" fill="white"/>
<path d="M8.1875 17.492V17.3535H9.63166V17.492" fill="white"/>
<path d="M8.1875 17.3982V17.2598H9.63166V17.3982" fill="white"/>
<path d="M8.1875 17.3066V17.1682H9.63166V17.3066" fill="white"/>
<path d="M8.1875 17.2146V17.0762H9.63166V17.2146" fill="white"/>
<path d="M8.1875 17.1228V16.9844H9.63166V17.1228" fill="white"/>
<path d="M8.1875 17.0291V16.8906L9.63166 16.8927V17.0291" fill="white"/>
<path d="M8.18738 16.9372V16.8008H9.63154V16.9372" fill="white"/>
<path d="M8.1875 16.8472V16.7088H9.63166V16.8472" fill="white"/>
<path d="M8.1875 16.7556V16.6172H9.63166V16.7556" fill="white"/>
<path d="M8.1875 16.6619V16.5234H9.63166V16.6619" fill="white"/>
<path d="M8.1875 16.5701V16.4316H9.63166V16.5701" fill="white"/>
<path d="M8.1875 16.4783V16.4531H9.63166V16.4783" fill="white"/>
</g>
<path d="M17.0502 11.7441L17.4112 11.9518L17.7723 12.1616V12.5769V12.9943L17.4112 13.202L17.0502 13.4096L16.6892 13.202L16.3281 12.9943V12.5769V12.1616L16.6892 11.9518L17.0502 11.7441Z" fill="white"/>
<mask id="mask9_4494_98867" style="mask-type:luminance" maskUnits="userSpaceOnUse" x="16" y="11" width="2" height="3">
<path d="M17.0502 11.7441L17.4112 11.9518L17.7723 12.1616V12.5769V12.9943L17.4112 13.202L17.0502 13.4096L16.6892 13.202L16.3281 12.9943V12.5769V12.1616L16.6892 11.9518L17.0502 11.7441Z" fill="white"/>
</mask>
<g mask="url(#mask9_4494_98867)">
<path d="M16.3281 13.4092V13.3945H17.7723V13.4092" fill="white"/>
<path d="M16.3281 13.4412V13.3027H17.7723V13.4412" fill="white"/>
<path d="M16.3282 13.3492V13.2108H17.7724V13.3492" fill="white"/>
<path d="M16.3281 13.2576V13.1191H17.7723V13.2576" fill="white"/>
<path d="M16.3281 13.1656V13.0293H17.7723V13.1656" fill="white"/>
<path d="M16.3281 13.074V12.9355H17.7723V13.074" fill="white"/>
<path d="M16.3281 12.9824V12.8439H17.7723V12.9824" fill="white"/>
<path d="M16.3281 12.8904V12.752H17.7723V12.8904" fill="white"/>
<path d="M16.3281 12.7986V12.6602H17.7723V12.7986" fill="white"/>
<path d="M16.3281 12.7048V12.5664H17.7723V12.7048" fill="white"/>
<path d="M16.3281 12.6132V12.4748H17.7723V12.6132" fill="white"/>
<path d="M16.3281 12.5213V12.3828H17.7723V12.5213" fill="white"/>
<path d="M16.3281 12.4293V12.293H17.7723V12.4293" fill="white"/>
<path d="M16.3281 12.3377V12.1992H17.7723V12.3377" fill="white"/>
<path d="M16.3282 12.2459V12.1075H17.7724V12.2459" fill="white"/>
<path d="M16.3281 12.1539V12.0154H17.7723V12.1539" fill="white"/>
<path d="M16.3281 12.0623V11.9238H17.7723V12.0623" fill="white"/>
<path d="M16.3281 11.9685V11.8301H17.7723V11.9685" fill="white"/>
<path d="M16.3281 11.8767V11.7383H17.7723V11.8767" fill="white"/>
<path d="M16.3281 11.784V11.7441H17.7723V11.784" fill="white"/>
</g>
<path d="M17.0454 15.7559L18.372 16.5215V18.0527L17.0454 18.8184L15.7188 18.0527V16.5215L17.0454 15.7559Z" fill="white"/>
<mask id="mask10_4494_98867" style="mask-type:luminance" maskUnits="userSpaceOnUse" x="15" y="15" width="4" height="4">
<path d="M17.0454 15.7559L18.372 16.5215V18.0527L17.0454 18.8184L15.7188 18.0527V16.5215L17.0454 15.7559Z" fill="white"/>
</mask>
<g mask="url(#mask10_4494_98867)">
<path d="M15.7188 18.8726V18.7342H18.372V18.8726" fill="white"/>
<path d="M15.7188 18.781V18.6426H18.372V18.781" fill="white"/>
<path d="M15.7188 18.6873V18.5488H18.372V18.6873" fill="white"/>
<path d="M15.7188 18.5973V18.4609H18.372V18.5973" fill="white"/>
<path d="M15.7188 18.5058V18.3674H18.372V18.5058" fill="white"/>
<path d="M15.7188 18.4138V18.2754H18.372V18.4138" fill="white"/>
<path d="M15.7188 18.322V18.1836H18.372V18.322" fill="white"/>
<path d="M15.7188 18.2283V18.0898H18.372V18.2283" fill="white"/>
<path d="M15.7188 18.1366V17.9982H18.372V18.1366" fill="white"/>
<path d="M15.7188 18.0447V17.9062H18.372V18.0447" fill="white"/>
<path d="M15.7188 17.9529V17.8145H18.372V17.9529" fill="white"/>
<path d="M15.7188 17.859V17.7227H18.372V17.859" fill="white"/>
<path d="M15.7188 17.7672V17.6309H18.372V17.7672" fill="white"/>
<path d="M15.7188 17.6773V17.5388H18.372V17.6773" fill="white"/>
<path d="M15.7188 17.5838V17.4453H18.372V17.5838" fill="white"/>
<path d="M15.7188 17.492V17.3535H18.372V17.492" fill="white"/>
<path d="M15.7188 17.4002V17.2617H18.372V17.4002" fill="white"/>
<path d="M15.7188 17.3084V17.1699H18.372V17.3084" fill="white"/>
<path d="M15.7188 17.2166V17.0781H18.372V17.2166" fill="white"/>
<path d="M15.7188 17.1228V16.9844L18.372 16.9865V17.1228" fill="white"/>
<path d="M15.7188 17.0309V16.8945H18.372V17.0309" fill="white"/>
<path d="M15.7188 16.9412V16.8027H18.372V16.9412" fill="white"/>
<path d="M15.7188 16.8494V16.7109H18.372V16.8494" fill="white"/>
<path d="M15.7188 16.7556V16.6172H18.372V16.7556" fill="white"/>
<path d="M15.7188 16.6638V16.5254H18.372V16.6638" fill="white"/>
<path d="M15.7188 16.572V16.4336H18.372V16.572" fill="white"/>
<path d="M15.7188 16.4802V16.3418H18.372V16.4802" fill="white"/>
<path d="M15.7188 16.3865V16.248H18.372V16.3865" fill="white"/>
<path d="M15.7188 16.2947V16.1584H18.372V16.2947" fill="white"/>
<path d="M15.7188 16.2027V16.0663H18.372V16.2048" fill="white"/>
<path d="M15.7188 16.1131V15.9746H18.372V16.1131" fill="white"/>
<path d="M15.7188 16.0193V15.8809H18.372V16.0193" fill="white"/>
<path d="M15.7188 15.9277V15.7893H18.372V15.9277" fill="white"/>
<path d="M15.7188 15.8356V15.7559H18.372V15.8356" fill="white"/>
</g>
<path d="M25.265 11.7441L25.6261 11.9518L25.9871 12.1616V12.5769V12.9943L25.6261 13.202L25.265 13.4096L24.904 13.202L24.543 12.9943V12.5769V12.1616L24.904 11.9518L25.265 11.7441Z" fill="white"/>
<mask id="mask11_4494_98867" style="mask-type:luminance" maskUnits="userSpaceOnUse" x="24" y="11" width="2" height="3">
<path d="M25.265 11.7441L25.6261 11.9518L25.9871 12.1616V12.5769V12.9943L25.6261 13.202L25.265 13.4096L24.904 13.202L24.543 12.9943V12.5769V12.1616L24.904 11.9518L25.265 11.7441Z" fill="white"/>
</mask>
<g mask="url(#mask11_4494_98867)">
<path d="M24.543 13.4092V13.3945H25.9871V13.4092" fill="white"/>
<path d="M24.543 13.4412V13.3027H25.9871V13.4412" fill="white"/>
<path d="M24.543 13.3492V13.2108H25.9871V13.3492" fill="white"/>
<path d="M24.543 13.2574V13.1211H25.9871V13.2574" fill="white"/>
<path d="M24.543 13.1677V13.0293H25.9871V13.1677" fill="white"/>
<path d="M24.543 13.074V12.9355H25.9871V13.074" fill="white"/>
<path d="M24.543 12.9824V12.8439H25.9871V12.9824" fill="white"/>
<path d="M24.543 12.8904V12.752H25.9871V12.8904" fill="white"/>
<path d="M24.543 12.7986V12.6602H25.9871V12.7986" fill="white"/>
<path d="M24.543 12.7048V12.5664H25.9871V12.7048" fill="white"/>
<path d="M24.543 12.6132V12.4748H25.9871V12.6132" fill="white"/>
<path d="M24.543 12.5209V12.3846H25.9871V12.5209" fill="white"/>
<path d="M24.543 12.4314V12.293H25.9871V12.4314" fill="white"/>
<path d="M24.543 12.3377V12.1992H25.9871V12.3377" fill="white"/>
<path d="M24.543 12.2459V12.1075H25.9871V12.2459" fill="white"/>
<path d="M24.543 12.1539V12.0154H25.9871V12.1539" fill="white"/>
<path d="M24.543 12.0623V11.9238H25.9871V12.0623" fill="white"/>
<path d="M24.543 11.9685V11.8301H25.9871V11.9685" fill="white"/>
<path d="M24.543 11.8767V11.7383H25.9871V11.8767" fill="white"/>
<path d="M24.543 11.784V11.7441H25.9871V11.784" fill="white"/>
</g>
<path d="M25.265 16.4531L25.6261 16.6629L25.9871 16.8705V17.2859V17.7033L25.6261 17.911L25.265 18.1186L24.904 17.911L24.543 17.7033V17.2859V16.8705L24.904 16.6629L25.265 16.4531Z" fill="white"/>
<mask id="mask12_4494_98867" style="mask-type:luminance" maskUnits="userSpaceOnUse" x="24" y="16" width="2" height="3">
<path d="M25.265 16.4531L25.6261 16.6629L25.9871 16.8705V17.2859V17.7033L25.6261 17.911L25.265 18.1186L24.904 17.911L24.543 17.7033V17.2859V16.8705L24.904 16.6629L25.265 16.4531Z" fill="white"/>
</mask>
<g mask="url(#mask12_4494_98867)">
<path d="M24.543 18.1173V18.0879H25.9871V18.1173" fill="white"/>
<path d="M24.543 18.1345V17.9961H25.9871V18.1345" fill="white"/>
<path d="M24.543 18.0426V17.9042H25.9871V18.0426" fill="white"/>
<path d="M24.543 17.9508V17.8145H25.9871V17.9508" fill="white"/>
<path d="M24.543 17.859V17.7227H25.9871V17.859" fill="white"/>
<path d="M24.543 17.7673V17.6289H25.9871V17.7673" fill="white"/>
<path d="M24.543 17.6757V17.5373H25.9871V17.6757" fill="white"/>
<path d="M24.543 17.5838V17.4453H25.9871V17.5838" fill="white"/>
<path d="M24.543 17.492V17.3535H25.9871V17.492" fill="white"/>
<path d="M24.543 17.3982V17.2598H25.9871V17.3982" fill="white"/>
<path d="M24.543 17.3066V17.1682H25.9871V17.3066" fill="white"/>
<path d="M24.543 17.2146V17.0762H25.9871V17.2146" fill="white"/>
<path d="M24.543 17.1227V16.9863H25.9871V17.1227" fill="white"/>
<path d="M24.543 17.031V16.8926H25.9871V17.031" fill="white"/>
<path d="M24.543 16.9393V16.8008H25.9871V16.9393" fill="white"/>
<path d="M24.543 16.8472V16.7088H25.9871V16.8472" fill="white"/>
<path d="M24.543 16.7556V16.6172H25.9871V16.7556" fill="white"/>
<path d="M24.543 16.6619V16.5234H25.9871V16.6619" fill="white"/>
<path d="M24.543 16.5701V16.4316H25.9871V16.5701" fill="white"/>
<path d="M24.543 16.4783V16.4531H25.9871V16.4783" fill="white"/>
</g>
<path d="M4.81583 4.71289L5.17687 4.92055L5.53791 5.13031V5.54564V5.96307L5.17687 6.17073L4.81583 6.37839L4.45479 6.17073L4.09375 5.96307V5.54564V5.13031L4.45479 4.92055L4.81583 4.71289Z" fill="white"/>
<mask id="mask13_4494_98867" style="mask-type:luminance" maskUnits="userSpaceOnUse" x="4" y="4" width="2" height="3">
<path d="M4.81583 4.71289L5.17687 4.92055L5.53791 5.13031V5.54564V5.96307L5.17687 6.17073L4.81583 6.37839L4.45479 6.17073L4.09375 5.96307V5.54564V5.13031L4.45479 4.92055L4.81583 4.71289Z" fill="white"/>
</mask>
<g mask="url(#mask13_4494_98867)">
<path d="M4.09375 6.44508V6.30664H5.53791V6.44508" fill="white"/>
<path d="M4.09375 6.35323V6.21478H5.53791V6.35323" fill="white"/>
<path d="M4.09375 6.26149V6.12305H5.53791V6.26149" fill="white"/>
<path d="M4.09375 6.16774V6.0293L5.53791 6.03139V6.16774" fill="white"/>
<path d="M4.09375 6.0758V5.93945H5.53791V6.0758" fill="white"/>
<path d="M4.09375 5.98629V5.84785H5.53791V5.98629" fill="white"/>
<path d="M4.09375 5.8943V5.75586H5.53791V5.8943" fill="white"/>
<path d="M4.09375 5.8025V5.66406H5.53791V5.8025" fill="white"/>
<path d="M4.09375 5.70875V5.57031H5.53791V5.70875" fill="white"/>
<path d="M4.09375 5.61715V5.47871H5.53791V5.61715" fill="white"/>
<path d="M4.09375 5.52516V5.38672H5.53791V5.52516" fill="white"/>
<path d="M4.09375 5.43237V4.71289H5.53791V5.43237" fill="white"/>
</g>
<path d="M4.81273 18.3066L6.0239 19.0072V20.4042L4.81273 21.1049L3.60156 20.4042V19.0072L4.81273 18.3066Z" fill="white"/>
<mask id="mask14_4494_98867" style="mask-type:luminance" maskUnits="userSpaceOnUse" x="3" y="18" width="4" height="4">
<path d="M4.81273 18.3066L6.0239 19.0072V20.4042L4.81273 21.1049L3.60156 20.4042V19.0072L4.81273 18.3066Z" fill="white"/>
</mask>
<g mask="url(#mask14_4494_98867)">
<path d="M3.60156 21.1736V21.0352H6.0239V21.1736" fill="white"/>
<path d="M3.60156 21.0818V20.9434H6.0239V21.0818" fill="white"/>
<path d="M3.60156 20.99V20.8516H6.0239V20.99" fill="white"/>
<path d="M3.60156 20.8982V20.7598H6.0239V20.8982" fill="white"/>
<path d="M3.60156 20.8043V20.668H6.0239V20.8043" fill="white"/>
<path d="M3.60156 20.7125V20.5762H6.0239V20.7125" fill="white"/>
<path d="M3.60156 20.6228V20.4844H6.0239V20.6228" fill="white"/>
<path d="M3.60156 20.531V20.3926H6.0239V20.531" fill="white"/>
<path d="M3.60156 20.4392V20.3008H6.0239V20.4392" fill="white"/>
<path d="M3.60156 20.3455V20.207H6.0239V20.3455" fill="white"/>
<path d="M3.60156 20.2537V20.1152H6.0239V20.2537" fill="white"/>
<path d="M3.60156 20.1619V20.0234H6.0239V20.1619" fill="white"/>
<path d="M3.60156 20.0681V19.9297L6.0239 19.9318V20.0681" fill="white"/>
<path d="M3.60156 19.9762V19.8398H6.0239V19.9762" fill="white"/>
<path d="M3.60144 19.8863V19.7479H6.02377V19.8863" fill="white"/>
<path d="M3.60156 19.7947V19.6562H6.0239V19.7947" fill="white"/>
<path d="M3.60156 19.7009V19.5625H6.0239V19.7009" fill="white"/>
<path d="M3.60156 19.6091V19.4707H6.0239V19.6091" fill="white"/>
<path d="M3.60144 19.5172V19.3787H6.02377V19.5172" fill="white"/>
<path d="M3.60156 19.4256V19.2871H6.0239V19.4256" fill="white"/>
<path d="M3.60156 19.3318V19.1934H6.0239V19.3318" fill="white"/>
<path d="M3.60156 19.2399V19.1035H6.0239V19.2399" fill="white"/>
<path d="M3.60156 19.1483V19.0119H6.0239V19.1504" fill="white"/>
<path d="M3.60156 19.0584V18.9199H6.0239V19.0584" fill="white"/>
<path d="M3.60156 18.9666V18.8281H6.0239V18.9666" fill="white"/>
<path d="M3.60156 18.8728V18.7344H6.0239V18.8728" fill="white"/>
<path d="M3.60156 18.781V18.6426H6.0239V18.781" fill="white"/>
<path d="M3.60156 18.6892V18.5508H6.0239V18.6892" fill="white"/>
<path d="M3.60156 18.5955V18.457H6.0239V18.5955" fill="white"/>
<path d="M3.60156 18.5035V18.3672H6.0239V18.5035" fill="white"/>
<path d="M3.60156 18.4117V18.2754H6.0239V18.4117" fill="white"/>
<path d="M3.60156 18.3213V18.3066H6.0239V18.3213" fill="white"/>
</g>
<path d="M4.8149 8.66406L6.14151 9.42969V10.9609L4.8149 11.7266L3.48828 10.9609V9.42969L4.8149 8.66406Z" fill="white"/>
<mask id="mask15_4494_98867" style="mask-type:luminance" maskUnits="userSpaceOnUse" x="3" y="8" width="4" height="4">
<path d="M4.8149 8.66406L6.14151 9.42969V10.9609L4.8149 11.7266L3.48828 10.9609V9.42969L4.8149 8.66406Z" fill="white"/>
</mask>
<g mask="url(#mask15_4494_98867)">
<path d="M3.48828 11.7849V11.6465H6.14151V11.7849" fill="white"/>
<path d="M3.48828 11.693V11.5546H6.14151V11.693" fill="white"/>
<path d="M3.48828 11.6013V11.4629H6.14151V11.6013" fill="white"/>
<path d="M3.48828 11.5094V11.373H6.14151V11.5094" fill="white"/>
<path d="M3.48828 11.4177V11.2793H6.14151V11.4177" fill="white"/>
<path d="M3.48828 11.3261V11.1877H6.14151V11.3261" fill="white"/>
<path d="M3.48828 11.2341V11.0957H6.14151V11.2341" fill="white"/>
<path d="M3.48828 11.1423V11.0039H6.14151V11.1423" fill="white"/>
<path d="M3.48828 11.0486V10.9102H6.14151V11.0486" fill="white"/>
<path d="M3.48828 10.957V10.8186H6.14151V10.957" fill="white"/>
<path d="M3.48828 10.865V10.7266H6.14151V10.865" fill="white"/>
<path d="M3.48828 10.7731V10.6367H6.14151V10.7731" fill="white"/>
<path d="M3.48828 10.6793V10.543H6.14151V10.6814" fill="white"/>
<path d="M3.48828 10.5897V10.4512H6.14151V10.5897" fill="white"/>
<path d="M3.48828 10.4976V10.3592H6.14151V10.4976" fill="white"/>
<path d="M3.48828 10.406V10.2676H6.14151V10.406" fill="white"/>
<path d="M3.48828 10.3123V10.1738H6.14151V10.3123" fill="white"/>
<path d="M3.48828 10.2205V10.082H6.14151V10.2205" fill="white"/>
<path d="M3.48828 10.1285V9.99004H6.14151V10.1285" fill="white"/>
<path d="M3.48828 10.0349V9.89648L6.14151 9.89858V10.0349" fill="white"/>
<path d="M3.48828 9.94299V9.80664H6.14151V9.94299" fill="white"/>
<path d="M3.48828 9.85329V9.71484H6.14151V9.85329" fill="white"/>
<path d="M3.48828 9.76149V9.62305H6.14151V9.76149" fill="white"/>
<path d="M3.48828 9.66774V9.5293H6.14151V9.66774" fill="white"/>
<path d="M3.48828 9.57594V9.4375H6.14151V9.57594" fill="white"/>
<path d="M3.48828 9.48395V9.34551H6.14151V9.48395" fill="white"/>
<path d="M3.48828 9.39235V9.25391H6.14151V9.39235" fill="white"/>
<path d="M3.48828 9.2986V9.16016H6.14151V9.2986" fill="white"/>
<path d="M3.48828 9.20666V9.07031H6.14151V9.20666" fill="white"/>
<path d="M3.48828 9.11504V8.9787H6.14151V9.11714" fill="white"/>
<path d="M3.48828 9.02516V8.88672H6.14151V9.02516" fill="white"/>
<path d="M3.48828 8.93336V8.79492H6.14151V8.93336" fill="white"/>
<path d="M3.48828 8.83961V8.70117H6.14151V8.83961" fill="white"/>
<path d="M3.48828 8.74797V8.66406H6.14151V8.74797" fill="white"/>
</g>
<path d="M4.81273 13.5059L6.0239 14.2044V15.6035L4.81273 16.302L3.60156 15.6035V14.2044L4.81273 13.5059Z" fill="white"/>
<mask id="mask16_4494_98867" style="mask-type:luminance" maskUnits="userSpaceOnUse" x="3" y="13" width="4" height="4">
<path d="M4.81273 13.5059L6.0239 14.2044V15.6035L4.81273 16.302L3.60156 15.6035V14.2044L4.81273 13.5059Z" fill="white"/>
</mask>
<g mask="url(#mask16_4494_98867)">
<path d="M3.60156 16.3008V16.3385H6.0239V16.3008" fill="white"/>
<path d="M3.60156 16.3845V16.2461H6.0239V16.3845" fill="white"/>
<path d="M3.60156 16.2927V16.1543H6.0239V16.2927" fill="white"/>
<path d="M3.60156 16.2009V16.0625L6.0239 16.0646V16.2009" fill="white"/>
<path d="M3.60156 16.109V15.9727H6.0239V16.109" fill="white"/>
<path d="M3.60156 16.0173V15.8789H6.0239V16.0173" fill="white"/>
<path d="M3.60156 15.9256V15.7871H6.0239V15.9256" fill="white"/>
<path d="M3.60156 15.8338V15.6953H6.0239V15.8338" fill="white"/>
<path d="M3.60156 15.742V15.6035H6.0239V15.742" fill="white"/>
<path d="M3.60156 15.6502V15.5117H6.0239V15.6502" fill="white"/>
<path d="M3.60156 15.5564V15.418H6.0239V15.5564" fill="white"/>
<path d="M3.60156 15.4646V15.3262H6.0239V15.4646" fill="white"/>
<path d="M3.60156 15.3727V15.2363H6.0239V15.3727" fill="white"/>
<path d="M3.60156 15.281V15.1426H6.0239V15.281" fill="white"/>
<path d="M3.60156 15.1892V15.0508H6.0239V15.1892" fill="white"/>
<path d="M3.60144 15.0973V14.9588H6.02377V15.0973" fill="white"/>
<path d="M3.60156 15.0056V14.8672H6.0239V15.0056" fill="white"/>
<path d="M3.60156 14.9119V14.7734H6.0239V14.9119" fill="white"/>
<path d="M3.60156 14.8201V14.6816H6.0239V14.8201" fill="white"/>
<path d="M3.60144 14.7281V14.5897H6.02377V14.7281" fill="white"/>
<path d="M3.60156 14.6363V14.5H6.0239V14.6363" fill="white"/>
<path d="M3.60156 14.5445V14.4082H6.0239V14.5445" fill="white"/>
<path d="M3.60156 14.4529V14.3145H6.0239V14.4529" fill="white"/>
<path d="M3.60156 14.3613V14.2229H6.0239V14.3613" fill="white"/>
<path d="M3.60156 14.2693V14.1309H6.0239V14.2693" fill="white"/>
<path d="M3.60156 14.1775V14.0391H6.0239V14.1775" fill="white"/>
<path d="M3.60156 14.0838V13.9453H6.0239V14.0838" fill="white"/>
<path d="M3.60156 13.992V13.8535H6.0239V13.992" fill="white"/>
<path d="M3.60156 13.9002V13.7617L6.0239 13.7638V13.9002" fill="white"/>
<path d="M3.60156 13.8082V13.6719H6.0239V13.8082" fill="white"/>
<path d="M3.60156 13.7166V13.5781H6.0239V13.7166" fill="white"/>
<path d="M3.60156 13.6248V13.4863H6.0239V13.6248" fill="white"/>
<path d="M3.60156 13.5333V13.5039L6.0239 13.506V13.5333" fill="white"/>
</g>
<path d="M21.1178 18.1738L22.4444 18.9395V20.4707L21.1178 21.2363L19.7891 20.4707V18.9395L21.1178 18.1738Z" fill="white"/>
<mask id="mask17_4494_98867" style="mask-type:luminance" maskUnits="userSpaceOnUse" x="19" y="18" width="4" height="4">
<path d="M21.1178 18.1738L22.4444 18.9395V20.4707L21.1178 21.2363L19.7891 20.4707V18.9395L21.1178 18.1738Z" fill="white"/>
</mask>
<g mask="url(#mask17_4494_98867)">
<path d="M19.7891 21.2355V21.2188H22.4444V21.2355" fill="white"/>
<path d="M19.7891 21.2654V21.127H22.4444V21.2654" fill="white"/>
<path d="M19.7891 21.1734V21.035H22.4444V21.1734" fill="white"/>
<path d="M19.7891 21.0818V20.9434H22.4444V21.0818" fill="white"/>
<path d="M19.7891 20.9899V20.8535H22.4444V20.9899" fill="white"/>
<path d="M19.7891 20.8961V20.7598H22.4444V20.8961" fill="white"/>
<path d="M19.7891 20.8066V20.6682H22.4444V20.8066" fill="white"/>
<path d="M19.7891 20.7146V20.5762H22.4444V20.7146" fill="white"/>
<path d="M19.7891 20.6228V20.4844H22.4444V20.6228" fill="white"/>
<path d="M19.7891 20.5291V20.3906H22.4444V20.5291" fill="white"/>
<path d="M19.7891 20.4373V20.2988H22.4444V20.4373" fill="white"/>
<path d="M19.7891 20.3455V20.207H22.4444V20.3455" fill="white"/>
<path d="M19.7891 20.2517V20.1133L22.4444 20.1154V20.2517" fill="white"/>
<path d="M19.7891 20.16V20.0236H22.4444V20.16" fill="white"/>
<path d="M19.7891 20.0701V19.9316H22.4444V20.0701" fill="white"/>
<path d="M19.7891 19.9783V19.8398H22.4444V19.9783" fill="white"/>
<path d="M19.7891 19.8845V19.7461H22.4444V19.8845" fill="white"/>
<path d="M19.7891 19.7929V19.6545H22.4444V19.7929" fill="white"/>
<path d="M19.7891 19.7009V19.5624H22.4444V19.7009" fill="white"/>
<path d="M19.7891 19.6091V19.4707H22.4444V19.6091" fill="white"/>
<path d="M19.7891 19.5154V19.377H22.4444V19.5154" fill="white"/>
<path d="M19.7891 19.4235V19.2871H22.4444V19.4235" fill="white"/>
<path d="M19.7891 19.3315V19.1951H22.4444V19.3336" fill="white"/>
<path d="M19.7891 19.242V19.1035H22.4444V19.242" fill="white"/>
<path d="M19.7891 19.1482V19.0098H22.4444V19.1482" fill="white"/>
<path d="M19.7891 19.0564V18.918H22.4444V19.0564" fill="white"/>
<path d="M19.7891 18.9644V18.826H22.4444V18.9644" fill="white"/>
<path d="M19.7891 18.8728V18.7344H22.4444V18.8728" fill="white"/>
<path d="M19.7891 18.7791V18.6406H22.4444V18.7791" fill="white"/>
<path d="M19.7891 18.6871V18.5508H22.4444V18.6871" fill="white"/>
<path d="M19.7891 18.5954V18.4591H22.4444V18.5954" fill="white"/>
<path d="M19.7891 18.5056V18.3672H22.4444V18.5056" fill="white"/>
<path d="M19.7891 18.4138V18.2754H22.4444V18.4138" fill="white"/>
<path d="M19.7891 18.3201V18.1816H22.4444V18.3201" fill="white"/>
<path d="M19.7891 18.2284V18.1738H22.4444V18.2284" fill="white"/>
</g>
<path d="M21.1178 8.66406L22.4444 9.42969V10.9609L21.1178 11.7266L19.7891 10.9609V9.42969L21.1178 8.66406Z" fill="white"/>
<mask id="mask18_4494_98867" style="mask-type:luminance" maskUnits="userSpaceOnUse" x="19" y="8" width="4" height="4">
<path d="M21.1178 8.66406L22.4444 9.42969V10.9609L21.1178 11.7266L19.7891 10.9609V9.42969L21.1178 8.66406Z" fill="white"/>
</mask>
<g mask="url(#mask18_4494_98867)">
<path d="M19.7891 11.7849V11.6465H22.4444V11.7849" fill="white"/>
<path d="M19.7891 11.6932V11.5568H22.4444V11.6932" fill="white"/>
<path d="M19.7891 11.6033V11.4648H22.4444V11.6033" fill="white"/>
<path d="M19.7891 11.5115V11.373H22.4444V11.5115" fill="white"/>
<path d="M19.7891 11.4177V11.2793H22.4444V11.4177" fill="white"/>
<path d="M19.7891 11.3261V11.1877H22.4444V11.3261" fill="white"/>
<path d="M19.7891 11.2341V11.0957H22.4444V11.2341" fill="white"/>
<path d="M19.7891 11.1423V11.0039H22.4444V11.1423" fill="white"/>
<path d="M19.7891 11.0486V10.9102H22.4444V11.0486" fill="white"/>
<path d="M19.7891 10.9567V10.8204H22.4444V10.9567" fill="white"/>
<path d="M19.7891 10.8647V10.7283H22.4444V10.8647" fill="white"/>
<path d="M19.7891 10.7752V10.6367H22.4444V10.7752" fill="white"/>
<path d="M19.7891 10.6814V10.543H22.4444V10.6814" fill="white"/>
<path d="M19.7891 10.5897V10.4512H22.4444V10.5897" fill="white"/>
<path d="M19.7891 10.4976V10.3592H22.4444V10.4976" fill="white"/>
<path d="M19.7891 10.406V10.2676H22.4444V10.406" fill="white"/>
<path d="M19.7891 10.3123V10.1738H22.4444V10.3123" fill="white"/>
<path d="M19.7891 10.2205V10.082L22.4444 10.0841V10.2205" fill="white"/>
<path d="M19.7891 10.1285V9.99219H22.4444V10.1285" fill="white"/>
<path d="M19.7891 10.0388V9.90039H22.4444V10.0388" fill="white"/>
<path d="M19.7891 9.94508V9.80664H22.4444V9.94508" fill="white"/>
<path d="M19.7891 9.85329V9.71484H22.4444V9.85329" fill="white"/>
<path d="M19.7891 9.76149V9.62305H22.4444V9.76149" fill="white"/>
<path d="M19.7891 9.66774V9.5293H22.4444V9.66774" fill="white"/>
<path d="M19.7891 9.57594V9.4375H22.4444V9.57594" fill="white"/>
<path d="M19.7891 9.48395V9.34551H22.4444V9.48395" fill="white"/>
<path d="M19.7891 9.3922V9.25586H22.4444V9.3922" fill="white"/>
<path d="M19.7891 9.30041V9.16406H22.4444V9.3025" fill="white"/>
<path d="M19.7891 9.20875V9.07031H22.4444V9.20875" fill="white"/>
<path d="M19.7891 9.11714V8.9787H22.4444V9.11714" fill="white"/>
<path d="M19.7891 9.02516V8.88672H22.4444V9.02516" fill="white"/>
<path d="M19.7891 8.93336V8.79492H22.4444V8.93336" fill="white"/>
<path d="M19.7891 8.83961V8.70117H22.4444V8.83961" fill="white"/>
<path d="M19.7891 8.74797V8.66406H22.4444V8.74797" fill="white"/>
</g>
<path d="M21.1178 13.373L22.4444 14.1387V15.6699L21.1178 16.4356L19.7891 15.6699V14.1387L21.1178 13.373Z" fill="white"/>
<mask id="mask19_4494_98867" style="mask-type:luminance" maskUnits="userSpaceOnUse" x="19" y="13" width="4" height="4">
<path d="M21.1178 13.373L22.4444 14.1387V15.6699L21.1178 16.4356L19.7891 15.6699V14.1387L21.1178 13.373Z" fill="white"/>
</mask>
<g mask="url(#mask19_4494_98867)">
<path d="M19.7891 16.4356V16.4335H22.4444V16.4356" fill="white"/>
<path d="M19.7891 16.4802V16.3418H22.4444V16.4802" fill="white"/>
<path d="M19.7891 16.3865V16.248L22.4444 16.2501V16.3865" fill="white"/>
<path d="M19.7891 16.2945V16.1582H22.4444V16.2945" fill="white"/>
<path d="M19.7891 16.205V16.0666H22.4444V16.205" fill="white"/>
<path d="M19.7891 16.1131V15.9746H22.4444V16.1131" fill="white"/>
<path d="M19.7891 16.0213V15.8828H22.4444V16.0213" fill="white"/>
<path d="M19.7891 15.9275V15.7891H22.4444V15.9275" fill="white"/>
<path d="M19.7891 15.8359V15.6975H22.4444V15.8359" fill="white"/>
<path d="M19.7891 15.7439V15.6055H22.4444V15.7439" fill="white"/>
<path d="M19.7891 15.6521V15.5137H22.4444V15.6521" fill="white"/>
<path d="M19.7891 15.5582V15.4219H22.4444V15.5582" fill="white"/>
<path d="M19.7891 15.4665V15.3301H22.4444V15.4686" fill="white"/>
<path d="M19.7891 15.3765V15.2381H22.4444V15.3765" fill="white"/>
<path d="M19.7891 15.2849V15.1465H22.4444V15.2849" fill="white"/>
<path d="M19.7891 15.1912V15.0527H22.4444V15.1912" fill="white"/>
<path d="M19.7891 15.0994V14.9609H22.4444V15.0994" fill="white"/>
<path d="M19.7891 15.0076V14.8691H22.4444V15.0076" fill="white"/>
<path d="M19.7891 14.9138V14.7754H22.4444V14.9138" fill="white"/>
<path d="M19.7891 14.8219V14.6855H22.4444V14.8219" fill="white"/>
<path d="M19.7891 14.7301V14.5938H22.4444V14.7301" fill="white"/>
<path d="M19.7891 14.6404V14.502H22.4444V14.6404" fill="white"/>
<path d="M19.7891 14.5466V14.4082H22.4444V14.5466" fill="white"/>
<path d="M19.7891 14.4548V14.3164H22.4444V14.4548" fill="white"/>
<path d="M19.7891 14.3629V14.2244H22.4444V14.3629" fill="white"/>
<path d="M19.7891 14.2713V14.1328H22.4444V14.2713" fill="white"/>
<path d="M19.7891 14.1775V14.0391H22.4444V14.1775" fill="white"/>
<path d="M19.7891 14.0857V13.9473H22.4444V14.0857" fill="white"/>
<path d="M19.7891 13.9939V13.8576H22.4444V13.9939" fill="white"/>
<path d="M19.7891 13.9041V13.7656H22.4444V13.9041" fill="white"/>
<path d="M19.7891 13.8123V13.6738H22.4444V13.8123" fill="white"/>
<path d="M19.7891 13.7185V13.5801H22.4444V13.7185" fill="white"/>
<path d="M19.7891 13.6269V13.4884H22.4444V13.6269" fill="white"/>
<path d="M19.7891 13.5349V13.3965H22.4444V13.5349" fill="white"/>
<path d="M19.7891 13.4423V13.373H22.4444V13.4423" fill="white"/>
</g>
<path d="M21.1166 23.615L21.4777 23.8227L21.8366 24.0303V24.4478V24.8631L21.4777 25.0708L21.1166 25.2805L20.7556 25.0708L20.3945 24.8631V24.4478V24.0303L20.7556 23.8227L21.1166 23.615Z" fill="white"/>
<mask id="mask20_4494_98867" style="mask-type:luminance" maskUnits="userSpaceOnUse" x="20" y="23" width="2" height="3">
<path d="M21.1166 23.615L21.4777 23.8227L21.8366 24.0303V24.4478V24.8631L21.4777 25.0708L21.1166 25.2805L20.7556 25.0708L20.3945 24.8631V24.4478V24.0303L20.7556 23.8227L21.1166 23.615Z" fill="white"/>
</mask>
<g mask="url(#mask20_4494_98867)">
<path d="M20.3945 25.2798V25.2693H21.8366V25.2798" fill="white"/>
<path d="M20.3945 25.316V25.1775H21.8366V25.316" fill="white"/>
<path d="M20.3947 25.224V25.0856H21.8367V25.224" fill="white"/>
<path d="M20.3945 25.1324V24.9939H21.8366V25.1324" fill="white"/>
<path d="M20.3945 25.0386V24.9002H21.8366V25.0386" fill="white"/>
<path d="M20.3945 24.9468V24.8084H21.8366V24.9468" fill="white"/>
<path d="M20.3945 24.8551V24.7187H21.8366V24.8551" fill="white"/>
<path d="M20.3945 24.7631V24.6267H21.8366V24.7631" fill="white"/>
<path d="M20.3945 24.6734V24.5349H21.8366V24.6734" fill="white"/>
<path d="M20.3945 24.5796V24.4412H21.8366V24.5796" fill="white"/>
<path d="M20.3945 24.488V24.3496H21.8366V24.488" fill="white"/>
<path d="M20.3945 24.396V24.2576H21.8366V24.396" fill="white"/>
<path d="M20.3945 24.3042V24.1658H21.8366V24.3042" fill="white"/>
<path d="M20.3945 24.2105V24.0721H21.8366V24.2105" fill="white"/>
<path d="M20.3945 24.1189V23.9804H21.8366V24.1189" fill="white"/>
<path d="M20.3945 24.0266V23.8902H21.8366V24.0266" fill="white"/>
<path d="M20.3945 23.9371V23.7986H21.8366V23.9371" fill="white"/>
<path d="M20.3945 23.8433V23.7049H21.8366V23.8433" fill="white"/>
<path d="M20.3945 23.7515V23.6131H21.8366V23.7515" fill="white"/>
<path d="M20.3945 23.6591V23.615H21.8366V23.6591" fill="white"/>
</g>
<path d="M8.90958 2.38867L9.27062 2.59634L9.63166 2.8061V3.22142V3.63885L9.27062 3.84651L8.90958 4.05417L8.54854 3.84651L8.1875 3.63885V3.22142V2.8061L8.54854 2.59634L8.90958 2.38867Z" fill="white"/>
<mask id="mask21_4494_98867" style="mask-type:luminance" maskUnits="userSpaceOnUse" x="8" y="2" width="2" height="3">
<path d="M8.90958 2.38867L9.27062 2.59634L9.63166 2.8061V3.22142V3.63885L9.27062 3.84651L8.90958 4.05417L8.54854 3.84651L8.1875 3.63885V3.22142V2.8061L8.54854 2.59634L8.90958 2.38867Z" fill="white"/>
</mask>
<g mask="url(#mask21_4494_98867)">
<path d="M8.1875 4.05417V2.38867H9.63166V4.05417" fill="white"/>
</g>
<path d="M8.90958 7.03711L9.27062 7.24477L9.63166 7.45453V7.86986V8.28728L9.27062 8.49495L8.90958 8.70261L8.54854 8.49495L8.1875 8.28728V7.86986V7.45453L8.54854 7.24477L8.90958 7.03711Z" fill="white"/>
<mask id="mask22_4494_98867" style="mask-type:luminance" maskUnits="userSpaceOnUse" x="8" y="7" width="2" height="2">
<path d="M8.90958 7.03711L9.27062 7.24477L9.63166 7.45453V7.86986V8.28728L9.27062 8.49495L8.90958 8.70261L8.54854 8.49495L8.1875 8.28728V7.86986V7.45453L8.54854 7.24477L8.90958 7.03711Z" fill="white"/>
</mask>
<g mask="url(#mask22_4494_98867)">
<path d="M8.1875 8.70327V8.70117H9.63166V8.70327" fill="white"/>
<path d="M8.1875 8.74586V8.60742H9.63166V8.74586" fill="white"/>
<path d="M8.1875 8.65407V8.51562H9.63166V8.65407" fill="white"/>
<path d="M8.1875 8.56227V8.42383H9.63166V8.56227" fill="white"/>
<path d="M8.1875 8.47033V8.33398H9.63166V8.47033" fill="white"/>
<path d="M8.1875 8.37868V8.24023H9.63166V8.37868" fill="white"/>
<path d="M8.1875 8.28707V8.14863H9.63166V8.28707" fill="white"/>
<path d="M8.18738 8.19498V8.05654H9.63154V8.19498" fill="white"/>
<path d="M8.1875 8.10329V7.96484H9.63166V8.10329" fill="white"/>
<path d="M8.1875 8.00954V7.87109H9.63166V8.00954" fill="white"/>
<path d="M8.1875 7.91793V7.77949H9.63166V7.91793" fill="white"/>
<path d="M8.18738 7.82581V7.68736H9.63154V7.82581" fill="white"/>
<path d="M8.1875 7.734V7.59766H9.63166V7.734" fill="white"/>
<path d="M8.1875 7.64025V7.50391H9.63166V7.64025" fill="white"/>
<path d="M8.1875 7.55055V7.41211H9.63166V7.55055" fill="white"/>
<path d="M8.1875 7.45856V7.32012H9.63166V7.45856" fill="white"/>
<path d="M8.1875 7.36696V7.22852H9.63166V7.36696" fill="white"/>
<path d="M8.1875 7.27321V7.13477H9.63166V7.27321" fill="white"/>
<path d="M8.1875 7.18141V7.04297H9.63166V7.18141" fill="white"/>
<path d="M8.1875 7.08955V7.03711H9.63166V7.08955" fill="white"/>
</g>
<path d="M17.0971 2.38867L17.4581 2.59634L17.8192 2.8061V3.22142V3.63885L17.4581 3.84651L17.0971 4.05417L16.736 3.84651L16.375 3.63885V3.22142V2.8061L16.736 2.59634L17.0971 2.38867Z" fill="white"/>
<mask id="mask23_4494_98867" style="mask-type:luminance" maskUnits="userSpaceOnUse" x="16" y="2" width="2" height="3">
<path d="M17.0971 2.38867L17.4581 2.59634L17.8192 2.8061V3.22142V3.63885L17.4581 3.84651L17.0971 4.05417L16.736 3.84651L16.375 3.63885V3.22142V2.8061L16.736 2.59634L17.0971 2.38867Z" fill="white"/>
</mask>
<g mask="url(#mask23_4494_98867)">
<path d="M16.375 4.05417V2.38867H17.8192V4.05417" fill="white"/>
</g>
<path d="M17.0971 7.03711L17.4581 7.24477L17.8192 7.45453V7.86986V8.28728L17.4581 8.49495L17.0971 8.70261L16.736 8.49495L16.375 8.28728V7.86986V7.45453L16.736 7.24477L17.0971 7.03711Z" fill="white"/>
<mask id="mask24_4494_98867" style="mask-type:luminance" maskUnits="userSpaceOnUse" x="16" y="7" width="2" height="2">
<path d="M17.0971 7.03711L17.4581 7.24477L17.8192 7.45453V7.86986V8.28728L17.4581 8.49495L17.0971 8.70261L16.736 8.49495L16.375 8.28728V7.86986V7.45453L16.736 7.24477L17.0971 7.03711Z" fill="white"/>
</mask>
<g mask="url(#mask24_4494_98867)">
<path d="M16.375 8.70327V8.70117H17.8192V8.70327" fill="white"/>
<path d="M16.375 8.74586V8.60742H17.8192V8.74586" fill="white"/>
<path d="M16.375 8.65407V8.51562H17.8192V8.65407" fill="white"/>
<path d="M16.375 8.56207V8.42572H17.8192V8.56207" fill="white"/>
<path d="M16.375 8.47243V8.33398H17.8192V8.47243" fill="white"/>
<path d="M16.375 8.37868V8.24023H17.8192V8.37868" fill="white"/>
<path d="M16.375 8.28708V8.14863H17.8192V8.28708" fill="white"/>
<path d="M16.375 8.19498V8.05654H17.8192V8.19498" fill="white"/>
<path d="M16.375 8.10329V7.96484H17.8192V8.10329" fill="white"/>
<path d="M16.375 8.00954V7.87109H17.8192V8.00954" fill="white"/>
<path d="M16.375 7.91794V7.77949H17.8192V7.91794" fill="white"/>
<path d="M16.375 7.8256V7.68926H17.8192V7.8256" fill="white"/>
<path d="M16.375 7.734V7.59766H17.8192V7.734" fill="white"/>
<path d="M16.375 7.64235V7.50391H17.8192V7.64235" fill="white"/>
<path d="M16.375 7.55055V7.41211H17.8192V7.55055" fill="white"/>
<path d="M16.375 7.45856V7.32012H17.8192V7.45856" fill="white"/>
<path d="M16.375 7.36696V7.22852H17.8192V7.36696" fill="white"/>
<path d="M16.375 7.27321V7.13477H17.8192V7.27321" fill="white"/>
<path d="M16.375 7.18141V7.04297H17.8192V7.18141" fill="white"/>
<path d="M16.375 7.08955V7.03711H17.8192V7.08955" fill="white"/>
</g>
<path d="M17.0971 21.3027L17.4581 21.5125L17.8192 21.7202V22.1376V22.5529L17.4581 22.7606L17.0971 22.9703L16.736 22.7606L16.375 22.5529V22.1376V21.7202L16.736 21.5125L17.0971 21.3027Z" fill="white"/>
<mask id="mask25_4494_98867" style="mask-type:luminance" maskUnits="userSpaceOnUse" x="16" y="21" width="2" height="2">
<path d="M17.0971 21.3027L17.4581 21.5125L17.8192 21.7202V22.1376V22.5529L17.4581 22.7606L17.0971 22.9703L16.736 22.7606L16.375 22.5529V22.1376V21.7202L16.736 21.5125L17.0971 21.3027Z" fill="white"/>
</mask>
<g mask="url(#mask25_4494_98867)">
<path d="M16.375 22.9708V22.9688H17.8192V22.9708" fill="white"/>
<path d="M16.375 23.0134V22.875H17.8192V23.0134" fill="white"/>
<path d="M16.375 22.9218V22.7834H17.8192V22.9218" fill="white"/>
<path d="M16.375 22.8298V22.6913H17.8192V22.8298" fill="white"/>
<path d="M16.375 22.7381V22.5996H17.8192V22.7381" fill="white"/>
<path d="M16.375 22.6443V22.5059H17.8192V22.6443" fill="white"/>
<path d="M16.375 22.5527V22.4143H17.8192V22.5527" fill="white"/>
<path d="M16.375 22.4604V22.324H17.8192V22.4604" fill="white"/>
<path d="M16.375 22.3709V22.2324H17.8192V22.3709" fill="white"/>
<path d="M16.375 22.2771V22.1387H17.8192V22.2771" fill="white"/>
<path d="M16.375 22.1853V22.0469H17.8192V22.1853" fill="white"/>
<path d="M16.375 22.0933V21.9549H17.8192V22.0933" fill="white"/>
<path d="M16.375 22.0017V21.8633H17.8192V22.0017" fill="white"/>
<path d="M16.375 21.908V21.7695H17.8192V21.908" fill="white"/>
<path d="M16.375 21.8162V21.6777H17.8192V21.8162" fill="white"/>
<path d="M16.375 21.7243V21.588H17.8192V21.7243" fill="white"/>
<path d="M16.375 21.6324V21.4961H17.8192V21.6324" fill="white"/>
<path d="M16.375 21.5427V21.4043H17.8192V21.5427" fill="white"/>
<path d="M16.375 21.449V21.3105H17.8192V21.449" fill="white"/>
<path d="M16.375 21.3573V21.3027L17.8192 21.3048V21.3573" fill="white"/>
</g>
<path d="M17.0971 25.9531L17.4581 26.1608L17.8192 26.3685V26.7859V27.2012L17.4581 27.4089L17.0971 27.6186L16.736 27.4089L16.375 27.2012V26.7859V26.3685L16.736 26.1608L17.0971 25.9531Z" fill="white"/>
<mask id="mask26_4494_98867" style="mask-type:luminance" maskUnits="userSpaceOnUse" x="16" y="25" width="2" height="3">
<path d="M17.0971 25.9531L17.4581 26.1608L17.8192 26.3685V26.7859V27.2012L17.4581 27.4089L17.0971 27.6186L16.736 27.4089L16.375 27.2012V26.7859V26.3685L16.736 26.1608L17.0971 25.9531Z" fill="white"/>
</mask>
<g mask="url(#mask26_4494_98867)">
<path d="M16.375 27.7088V27.5703H17.8192V27.7088" fill="white"/>
<path d="M16.375 27.617V27.4785H17.8192V27.617" fill="white"/>
<path d="M16.375 27.525V27.3866H17.8192V27.525" fill="white"/>
<path d="M16.375 27.4334V27.2949H17.8192V27.4334" fill="white"/>
<path d="M16.375 27.3396V27.2012H17.8192V27.3396" fill="white"/>
<path d="M16.375 27.2478V27.1094H17.8192V27.2478" fill="white"/>
<path d="M16.375 27.1558V27.0174H17.8192V27.1558" fill="white"/>
<path d="M16.375 27.0641V26.9277H17.8192V27.0641" fill="white"/>
<path d="M16.375 26.9744V26.8359H17.8192V26.9744" fill="white"/>
<path d="M16.375 26.8806V26.7422H17.8192V26.8806" fill="white"/>
<path d="M16.375 26.789V26.6506H17.8192V26.789" fill="white"/>
<path d="M16.375 26.697V26.5586H17.8192V26.697" fill="white"/>
<path d="M16.375 26.6052V26.4668H17.8192V26.6052" fill="white"/>
<path d="M16.375 26.5115V26.373H17.8192V26.5115" fill="white"/>
<path d="M16.375 26.4197V26.2812H17.8192V26.4197" fill="white"/>
<path d="M16.375 26.3276V26.1912H17.8192V26.3276" fill="white"/>
<path d="M16.375 26.236V26.0996H17.8192V26.2381" fill="white"/>
<path d="M16.375 26.1443V26.0059H17.8192V26.1443" fill="white"/>
<path d="M16.375 26.0525V25.9141H17.8192V26.0525" fill="white"/>
<path d="M16.375 25.9594V25.9531H17.8192V25.9594" fill="white"/>
</g>
<path d="M8.90958 21.3027L9.27062 21.5125L9.63166 21.7202V22.1376V22.5529L9.27062 22.7606L8.90958 22.9703L8.54854 22.7606L8.1875 22.5529V22.1376V21.7202L8.54854 21.5125L8.90958 21.3027Z" fill="white"/>
<mask id="mask27_4494_98867" style="mask-type:luminance" maskUnits="userSpaceOnUse" x="8" y="21" width="2" height="2">
<path d="M8.90958 21.3027L9.27062 21.5125L9.63166 21.7202V22.1376V22.5529L9.27062 22.7606L8.90958 22.9703L8.54854 22.7606L8.1875 22.5529V22.1376V21.7202L8.54854 21.5125L8.90958 21.3027Z" fill="white"/>
</mask>
<g mask="url(#mask27_4494_98867)">
<path d="M8.1875 22.9708V22.9688H9.63166V22.9708" fill="white"/>
<path d="M8.1875 23.0134V22.875H9.63166V23.0134" fill="white"/>
<path d="M8.1875 22.9218V22.7834H9.63166V22.9218" fill="white"/>
<path d="M8.18738 22.8298V22.6913H9.63154V22.8298" fill="white"/>
<path d="M8.1875 22.7381V22.5996H9.63166V22.7381" fill="white"/>
<path d="M8.1875 22.6443V22.5059H9.63166V22.6443" fill="white"/>
<path d="M8.1875 22.5527V22.4143H9.63166V22.5527" fill="white"/>
<path d="M8.18738 22.4606V22.3222H9.63154V22.4606" fill="white"/>
<path d="M8.1875 22.3688V22.2324H9.63166V22.3688" fill="white"/>
<path d="M8.1875 22.2771V22.1387H9.63166V22.2771" fill="white"/>
<path d="M8.1875 22.1853V22.0469H9.63166V22.1853" fill="white"/>
<path d="M8.1875 22.0933V21.9549H9.63166V22.0933" fill="white"/>
<path d="M8.1875 22.0017V21.8633H9.63166V22.0017" fill="white"/>
<path d="M8.1875 21.908V21.7695H9.63166V21.908" fill="white"/>
<path d="M8.1875 21.8162V21.6777H9.63166V21.8162" fill="white"/>
<path d="M8.1875 21.7242V21.5857H9.63166V21.7242" fill="white"/>
<path d="M8.1875 21.6324V21.4961H9.63166V21.6324" fill="white"/>
<path d="M8.1875 21.5406V21.4043H9.63166V21.5406" fill="white"/>
<path d="M8.1875 21.449V21.3105H9.63166V21.449" fill="white"/>
<path d="M8.1875 21.3573V21.3027L9.63166 21.3048V21.3573" fill="white"/>
</g>
<path d="M8.90958 25.9531L9.27062 26.1608L9.63166 26.3685V26.7859V27.2012L9.27062 27.4089L8.90958 27.6186L8.54854 27.4089L8.1875 27.2012V26.7859V26.3685L8.54854 26.1608L8.90958 25.9531Z" fill="white"/>
<mask id="mask28_4494_98867" style="mask-type:luminance" maskUnits="userSpaceOnUse" x="8" y="25" width="2" height="3">
<path d="M8.90958 25.9531L9.27062 26.1608L9.63166 26.3685V26.7859V27.2012L9.27062 27.4089L8.90958 27.6186L8.54854 27.4089L8.1875 27.2012V26.7859V26.3685L8.54854 26.1608L8.90958 25.9531Z" fill="white"/>
</mask>
<g mask="url(#mask28_4494_98867)">
<path d="M8.1875 27.7067V27.5703H9.63166V27.7067" fill="white"/>
<path d="M8.1875 27.617V27.4785H9.63166V27.617" fill="white"/>
<path d="M8.18738 27.525V27.3866H9.63154V27.525" fill="white"/>
<path d="M8.1875 27.4334V27.2949H9.63166V27.4334" fill="white"/>
<path d="M8.1875 27.3396V27.2012H9.63166V27.3396" fill="white"/>
<path d="M8.1875 27.2478V27.1094H9.63166V27.2478" fill="white"/>
<path d="M8.18738 27.1558V27.0174H9.63154V27.1558" fill="white"/>
<path d="M8.1875 27.0642V26.9258H9.63166V27.0642" fill="white"/>
<path d="M8.1875 26.9723V26.8359H9.63166V26.9723" fill="white"/>
<path d="M8.1875 26.8806V26.7422H9.63166V26.8806" fill="white"/>
<path d="M8.1875 26.789V26.6506H9.63166V26.789" fill="white"/>
<path d="M8.1875 26.697V26.5586H9.63166V26.697" fill="white"/>
<path d="M8.1875 26.6052V26.4668H9.63166V26.6052" fill="white"/>
<path d="M8.1875 26.5115V26.373H9.63166V26.5115" fill="white"/>
<path d="M8.1875 26.4197V26.2812H9.63166V26.4197" fill="white"/>
<path d="M8.1875 26.3279V26.1895H9.63166V26.3279" fill="white"/>
<path d="M8.1875 26.236V26.0996H9.63166V26.236" fill="white"/>
<path d="M8.1875 26.1422V26.0059H9.63166V26.1443" fill="white"/>
<path d="M8.1875 26.0525V25.9141H9.63166V26.0525" fill="white"/>
<path d="M8.1875 25.9594V25.9531H9.63166V25.9594" fill="white"/>
</g>
<path d="M12.9934 0L13.3545 0.207663L13.7155 0.417424V0.832751V1.25017L13.3545 1.45784L12.9934 1.6655L12.6324 1.45784L12.2734 1.25017V0.832751V0.417424L12.6324 0.207663L12.9934 0Z" fill="white"/>
<mask id="mask29_4494_98867" style="mask-type:luminance" maskUnits="userSpaceOnUse" x="12" y="0" width="2" height="2">
<path d="M12.9934 0L13.3545 0.207663L13.7155 0.417424V0.832751V1.25017L13.3545 1.45784L12.9934 1.6655L12.6324 1.45784L12.2734 1.25017V0.832751V0.417424L12.6324 0.207663L12.9934 0Z" fill="white"/>
</mask>
<g mask="url(#mask29_4494_98867)">
<path d="M12.2734 1.6655V0H13.7155V1.6655" fill="white"/>
</g>
<path d="M12.9934 4.64824L13.3545 4.8559L13.7155 5.06566V5.48099V5.89841L13.3545 6.10608L12.9934 6.31374L12.6324 6.10608L12.2734 5.89841V5.48099V5.06566L12.6324 4.8559L12.9934 4.64824Z" fill="white"/>
<mask id="mask30_4494_98867" style="mask-type:luminance" maskUnits="userSpaceOnUse" x="12" y="4" width="2" height="3">
<path d="M12.9934 4.64824L13.3545 4.8559L13.7155 5.06566V5.48099V5.89841L13.3545 6.10608L12.9934 6.31374L12.6324 6.10608L12.2734 5.89841V5.48099V5.06566L12.6324 4.8559L12.9934 4.64824Z" fill="white"/>
</mask>
<g mask="url(#mask30_4494_98867)">
<path d="M12.2734 6.31469V6.3084H13.7155V6.31469" fill="white"/>
<path d="M12.2734 6.35309V6.21465H13.7155V6.35309" fill="white"/>
<path d="M12.2734 6.26149V6.12304L13.7155 6.12514V6.26149" fill="white"/>
<path d="M12.2734 6.16915V6.03281H13.7155V6.16915" fill="white"/>
<path d="M12.2734 6.07965V5.94121H13.7155V6.07965" fill="white"/>
<path d="M12.2734 5.9859V5.84746H13.7155V5.9859" fill="white"/>
<path d="M12.2733 5.89422V5.75578H13.7154V5.89422" fill="white"/>
<path d="M12.2734 5.80211V5.66367H13.7155V5.80211" fill="white"/>
<path d="M12.2734 5.71051V5.57207H13.7155V5.71051" fill="white"/>
<path d="M12.2734 5.61676V5.47832H13.7155V5.61676" fill="white"/>
<path d="M12.2733 5.52504V5.38659H13.7154V5.52504" fill="white"/>
<path d="M12.2734 5.43274V4.64824H13.7155V5.43274" fill="white"/>
</g>
<path d="M12.9934 9.29688L13.3545 9.50454L13.7155 9.7143V10.1296V10.547L13.3545 10.7547L12.9934 10.9624L12.6324 10.7547L12.2734 10.547V10.1296V9.7143L12.6324 9.50454L12.9934 9.29688Z" fill="white"/>
<mask id="mask31_4494_98867" style="mask-type:luminance" maskUnits="userSpaceOnUse" x="12" y="9" width="2" height="2">
<path d="M12.9934 9.29688L13.3545 9.50454L13.7155 9.7143V10.1296V10.547L13.3545 10.7547L12.9934 10.9624L12.6324 10.7547L12.2734 10.547V10.1296V9.7143L12.6324 9.50454L12.9934 9.29688Z" fill="white"/>
</mask>
<g mask="url(#mask31_4494_98867)">
<path d="M12.2734 10.9609V11.0008H13.7155V10.9609" fill="white"/>
<path d="M12.2734 11.0466V10.9082H13.7155V11.0466" fill="white"/>
<path d="M12.2734 10.9548V10.8164H13.7155V10.9548" fill="white"/>
<path d="M12.2734 10.8631V10.7268H13.7155V10.8631" fill="white"/>
<path d="M12.2734 10.7711V10.6348H13.7155V10.7711" fill="white"/>
<path d="M12.2734 10.6814V10.543H13.7155V10.6814" fill="white"/>
<path d="M12.2734 10.5877V10.4492H13.7155V10.5877" fill="white"/>
<path d="M12.2734 10.4961V10.3576H13.7155V10.4961" fill="white"/>
<path d="M12.2734 10.4041V10.2656H13.7155V10.4041" fill="white"/>
<path d="M12.2734 10.3123V10.1738H13.7155V10.3123" fill="white"/>
<path d="M12.2734 10.2185V10.0801H13.7155V10.2185" fill="white"/>
<path d="M12.2734 10.1269V9.98848L13.7155 9.99057V10.1269" fill="white"/>
<path d="M12.2734 10.0346V9.89824H13.7155V10.0346" fill="white"/>
<path d="M12.2734 9.94508V9.80664H13.7155V9.94508" fill="white"/>
<path d="M12.2734 9.85133V9.71289H13.7155V9.85133" fill="white"/>
<path d="M12.2733 9.75957V9.62113H13.7154V9.75957" fill="white"/>
<path d="M12.2734 9.66754V9.5291H13.7155V9.66754" fill="white"/>
<path d="M12.2734 9.57594V9.4375H13.7155V9.57594" fill="white"/>
<path d="M12.2734 9.48219V9.34375H13.7155V9.48219" fill="white"/>
<path d="M12.2734 9.3904V9.25195H13.7155V9.3904" fill="white"/>
<path d="M12.2734 9.29897V9.29688H13.7155V9.29897" fill="white"/>
</g>
<path d="M12.9934 19.0371L13.3545 19.2448L13.7155 19.4524V19.8699V20.2852L13.3545 20.4949L12.9934 20.7026L12.6324 20.4949L12.2734 20.2852V19.8699V19.4524L12.6324 19.2448L12.9934 19.0371Z" fill="white"/>
<mask id="mask32_4494_98867" style="mask-type:luminance" maskUnits="userSpaceOnUse" x="12" y="19" width="2" height="2">
<path d="M12.9934 19.0371L13.3545 19.2448L13.7155 19.4524V19.8699V20.2852L13.3545 20.4949L12.9934 20.7026L12.6324 20.4949L12.2734 20.2852V19.8699V19.4524L12.6324 19.2448L12.9934 19.0371Z" fill="white"/>
</mask>
<g mask="url(#mask32_4494_98867)">
<path d="M12.2734 20.7015V20.6658H13.7155V20.7015" fill="white"/>
<path d="M12.2734 20.7125V20.574H13.7155V20.7125" fill="white"/>
<path d="M12.2733 20.6205V20.4821H13.7154V20.6205" fill="white"/>
<path d="M12.2734 20.5289V20.3904H13.7155V20.5289" fill="white"/>
<path d="M12.2734 20.4351V20.2967H13.7155V20.4351" fill="white"/>
<path d="M12.2734 20.3433V20.2049H13.7155V20.3433" fill="white"/>
<path d="M12.2733 20.2513V20.1129H13.7154V20.2513" fill="white"/>
<path d="M12.2734 20.1597V20.0213H13.7155V20.1597" fill="white"/>
<path d="M12.2734 20.0678V19.9314H13.7155V20.0678" fill="white"/>
<path d="M12.2734 19.9761V19.8377H13.7155V19.9761" fill="white"/>
<path d="M12.2734 19.8845V19.7461H13.7155V19.8845" fill="white"/>
<path d="M12.2734 19.7925V19.6541H13.7155V19.7925" fill="white"/>
<path d="M12.2734 19.7007V19.5623H13.7155V19.7007" fill="white"/>
<path d="M12.2734 19.607V19.4686H13.7155V19.607" fill="white"/>
<path d="M12.2734 19.5152V19.3768H13.7155V19.5152" fill="white"/>
<path d="M12.2734 19.4234V19.285H13.7155V19.4234" fill="white"/>
<path d="M12.2734 19.3315V19.1951H13.7155V19.3315" fill="white"/>
<path d="M12.2734 19.2398V19.1014H13.7155V19.2398" fill="white"/>
<path d="M12.2734 19.148V19.0096H13.7155V19.148" fill="white"/>
<path d="M12.2734 19.056V19.0371H13.7155V19.056" fill="white"/>
</g>
<path d="M12.9934 23.6855L13.3545 23.8932L13.7155 24.1009V24.5183V24.9336L13.3545 25.1434L12.9934 25.351L12.6324 25.1434L12.2734 24.9336V24.5183V24.1009L12.6324 23.8932L12.9934 23.6855Z" fill="white"/>
<mask id="mask33_4494_98867" style="mask-type:luminance" maskUnits="userSpaceOnUse" x="12" y="23" width="2" height="3">
<path d="M12.9934 23.6855L13.3545 23.8932L13.7155 24.1009V24.5183V24.9336L13.3545 25.1434L12.9934 25.351L12.6324 25.1434L12.2734 24.9336V24.5183V24.1009L12.6324 23.8932L12.9934 23.6855Z" fill="white"/>
</mask>
<g mask="url(#mask33_4494_98867)">
<path d="M12.2734 25.408V25.2695H13.7155V25.408" fill="white"/>
<path d="M12.2734 25.3162V25.1777H13.7155V25.3162" fill="white"/>
<path d="M12.2734 25.2224V25.084H13.7155V25.2224" fill="white"/>
<path d="M12.2734 25.1306V24.9922H13.7155V25.1306" fill="white"/>
<path d="M12.2734 25.0388V24.9004H13.7155V25.0388" fill="white"/>
<path d="M12.2734 24.947V24.8086H13.7155V24.947" fill="white"/>
<path d="M12.2734 24.8533V24.7148H13.7155V24.8533" fill="white"/>
<path d="M12.2734 24.7613V24.625H13.7155V24.7613" fill="white"/>
<path d="M12.2734 24.6695V24.5332H13.7155V24.6695" fill="white"/>
<path d="M12.2734 24.5798V24.4414H13.7155V24.5798" fill="white"/>
<path d="M12.2734 24.4861V24.3477H13.7155V24.4861" fill="white"/>
<path d="M12.2734 24.3943V24.2559H13.7155V24.3943" fill="white"/>
<path d="M12.2734 24.3025V24.1641H13.7155V24.3025" fill="white"/>
<path d="M12.2734 24.2107V24.0723H13.7155V24.2107" fill="white"/>
<path d="M12.2734 24.117V23.9785H13.7155V24.117" fill="white"/>
<path d="M12.2734 24.0252V23.8867L13.7155 23.8888V24.0252" fill="white"/>
<path d="M12.2734 23.9332V23.7969H13.7155V23.9332" fill="white"/>
<path d="M12.2734 23.8435V23.7051H13.7155V23.8435" fill="white"/>
<path d="M12.2734 23.7506V23.6855H13.7155V23.7506" fill="white"/>
</g>
<path d="M12.9934 28.334L13.3545 28.5416L13.7155 28.7493V29.1667V29.5821L13.3545 29.7918L12.9934 29.9995L12.6324 29.7918L12.2734 29.5821V29.1667V28.7493L12.6324 28.5416L12.9934 28.334Z" fill="white"/>
<mask id="mask34_4494_98867" style="mask-type:luminance" maskUnits="userSpaceOnUse" x="12" y="28" width="2" height="2">
<path d="M12.9934 28.334L13.3545 28.5416L13.7155 28.7493V29.1667V29.5821L13.3545 29.7918L12.9934 29.9995L12.6324 29.7918L12.2734 29.5821V29.1667V28.7493L12.6324 28.5416L12.9934 28.334Z" fill="white"/>
</mask>
<g mask="url(#mask34_4494_98867)">
<path d="M12.2734 29.9988V28.7654H13.7155V29.9988" fill="white"/>
<path d="M12.2734 28.8121V28.6736H13.7155V28.8121" fill="white"/>
<path d="M12.2734 28.7203V28.5818H13.7155V28.7203" fill="white"/>
<path d="M12.2734 28.6283V28.492H13.7155V28.6283" fill="white"/>
<path d="M12.2734 28.5346V28.3982H13.7155V28.5346" fill="white"/>
<path d="M12.2734 28.4449V28.3064H13.7155V28.4449" fill="white"/>
<path d="M12.2734 28.3529V28.334H13.7155V28.3529" fill="white"/>
</g>
<path d="M4.33421 10.7578H5.29559V13.6504L6.14151 14.1371V15.6683L5.29559 16.1571V18.4497L6.14151 18.9385V20.4697L4.8149 21.2354L3.48828 20.4697V18.9385L4.33421 18.4497V16.1571L3.48828 15.6683V14.1371L4.33421 13.6504V10.7578Z" fill="white"/>
<mask id="mask35_4494_98867" style="mask-type:luminance" maskUnits="userSpaceOnUse" x="3" y="10" width="4" height="12">
<path d="M4.33421 10.7578H5.29559V13.6504L6.14151 14.1371V15.6683L5.29559 16.1571V18.4497L6.14151 18.9385V20.4697L4.8149 21.2354L3.48828 20.4697V18.9385L4.33421 18.4497V16.1571L3.48828 15.6683V14.1371L4.33421 13.6504V10.7578Z" fill="white"/>
</mask>
<g mask="url(#mask35_4494_98867)">
<path d="M3.48828 21.2353V21.2186H6.14151V21.2353" fill="white"/>
<path d="M3.48828 21.2652V21.1268H6.14151V21.2652" fill="white"/>
<path d="M3.48828 21.1734V21.035H6.14151V21.1734" fill="white"/>
<path d="M3.48828 21.0797V20.9412H6.14151V21.0797" fill="white"/>
<path d="M3.48828 20.9879V20.8494H6.14151V20.9879" fill="white"/>
<path d="M3.48828 20.8959V20.7574H6.14151V20.8959" fill="white"/>
<path d="M3.48828 20.8041V20.6678H6.14151V20.8041" fill="white"/>
<path d="M3.48828 20.7104V20.574H6.14151V20.7104" fill="white"/>
<path d="M3.48828 20.6207V20.4822H6.14151V20.6207" fill="white"/>
<path d="M3.48828 20.5289V20.3904H6.14151V20.5289" fill="white"/>
<path d="M3.48828 20.4371V20.2986H6.14151V20.4371" fill="white"/>
<path d="M3.48828 20.3433V20.2049H6.14151V20.3433" fill="white"/>
<path d="M3.48828 20.2515V20.1131H6.14151V20.2515" fill="white"/>
<path d="M3.48828 20.1597V20.0213H6.14151V20.1597" fill="white"/>
<path d="M3.48828 20.0679V19.9295L6.14151 19.9316V20.0679" fill="white"/>
<path d="M3.48828 19.976V19.8396H6.14151V19.976" fill="white"/>
<path d="M3.48828 19.8843V19.7459H6.14151V19.8843" fill="white"/>
<path d="M3.48828 19.7925V19.6541H6.14151V19.7925" fill="white"/>
<path d="M3.48828 19.7007V19.5623H6.14151V19.7007" fill="white"/>
<path d="M3.48828 19.607V19.4686H6.14151V19.607" fill="white"/>
<path d="M3.48828 19.5152V19.3768H6.14151V19.5152" fill="white"/>
<path d="M3.48828 19.4234V19.285H6.14151V19.4234" fill="white"/>
<path d="M3.48828 19.3316V19.1932H6.14151V19.3316" fill="white"/>
<path d="M3.48828 19.2377V19.1014H6.14151V19.2377" fill="white"/>
<path d="M3.48828 19.1459V19.0096H6.14151V19.148" fill="white"/>
<path d="M3.48828 19.0561V18.9177H6.14151V19.0561" fill="white"/>
<path d="M3.48828 18.9644V18.826H6.14151V18.9644" fill="white"/>
<path d="M3.48828 18.8707V18.7322H6.14151V18.8707" fill="white"/>
<path d="M3.48828 18.7789V18.6404H6.14151V18.7789" fill="white"/>
<path d="M3.48828 18.6869V18.5485H6.14151V18.6869" fill="white"/>
<path d="M3.48828 18.5953V18.4568H6.14151V18.5953" fill="white"/>
<path d="M3.48828 18.5033V18.367H6.14151V18.5033" fill="white"/>
<path d="M3.48828 18.4096V18.2732H6.14151V18.4096" fill="white"/>
<path d="M3.48828 18.3201V18.1816H6.14151V18.3201" fill="white"/>
<path d="M3.48828 18.2281V18.0896H6.14151V18.2281" fill="white"/>
<path d="M3.48828 18.1363V17.9979H6.14151V18.1363" fill="white"/>
<path d="M3.48828 18.0425V17.9041H6.14151V18.0425" fill="white"/>
<path d="M3.48828 17.9509V17.8125H6.14151V17.9509" fill="white"/>
<path d="M3.48828 17.8589V17.7205H6.14151V17.8589" fill="white"/>
<path d="M3.48828 17.7672V17.6287L6.14151 17.6308V17.7672" fill="white"/>
<path d="M3.48828 17.6733V17.5369H6.14151V17.6733" fill="white"/>
<path d="M3.48828 17.5836V17.4452H6.14151V17.5836" fill="white"/>
<path d="M3.48828 17.4916V17.3531H6.14151V17.4916" fill="white"/>
<path d="M3.48828 17.4V17.2615H6.14151V17.4" fill="white"/>
<path d="M3.48828 17.3062V17.1678H6.14151V17.3062" fill="white"/>
<path d="M3.48828 17.2144V17.076H6.14151V17.2144" fill="white"/>
<path d="M3.48828 17.1226V16.9842H6.14151V17.1226" fill="white"/>
<path d="M3.48828 17.0289V16.8904H6.14151V17.0289" fill="white"/>
<path d="M3.48828 16.9369V16.8006H6.14151V16.9369" fill="white"/>
<path d="M3.48828 16.8451V16.7088H6.14151V16.8472" fill="white"/>
<path d="M3.48828 16.7554V16.617H6.14151V16.7554" fill="white"/>
<path d="M3.48828 16.6617V16.5232H6.14151V16.6617" fill="white"/>
<path d="M3.48828 16.5699V16.4314H6.14151V16.5699" fill="white"/>
<path d="M3.48828 16.4779V16.3395H6.14151V16.4779" fill="white"/>
<path d="M3.48828 16.3863V16.2479H6.14151V16.3863" fill="white"/>
<path d="M3.48828 16.2925V16.1541H6.14151V16.2925" fill="white"/>
<path d="M3.48828 16.2007V16.0623L6.14151 16.0644V16.2007" fill="white"/>
<path d="M3.48828 16.109V15.9726H6.14151V16.109" fill="white"/>
<path d="M3.48828 16.0191V15.8807H6.14151V16.0191" fill="white"/>
<path d="M3.48828 15.9273V15.7889H6.14151V15.9273" fill="white"/>
<path d="M3.48828 15.8336V15.6951H6.14151V15.8336" fill="white"/>
<path d="M3.48828 15.7419V15.6035H6.14151V15.7419" fill="white"/>
<path d="M3.48828 15.65V15.5115H6.14151V15.65" fill="white"/>
<path d="M3.48828 15.5582V15.4197H6.14151V15.5582" fill="white"/>
<path d="M3.48828 15.4644V15.326H6.14151V15.4644" fill="white"/>
<path d="M3.48828 15.3725V15.2361H6.14151V15.3725" fill="white"/>
<path d="M3.48828 15.2828V15.1443H6.14151V15.2828" fill="white"/>
<path d="M3.48828 15.189V15.0506H6.14151V15.189" fill="white"/>
<path d="M3.48828 15.0972V14.9588H6.14151V15.0972" fill="white"/>
<path d="M3.48828 15.0054V14.867H6.14151V15.0054" fill="white"/>
<path d="M3.48828 14.9136V14.7752H6.14151V14.9136" fill="white"/>
<path d="M3.48828 14.8218V14.6834H6.14151V14.8218" fill="white"/>
<path d="M3.48828 14.7281V14.5896H6.14151V14.7281" fill="white"/>
<path d="M3.48828 14.6362V14.4998H6.14151V14.6362" fill="white"/>
<path d="M3.48828 14.5444V14.408H6.14151V14.5444" fill="white"/>
<path d="M3.48828 14.4547V14.3162H6.14151V14.4547" fill="white"/>
<path d="M3.48828 14.3609V14.2225H6.14151V14.3609" fill="white"/>
<path d="M3.48828 14.2691V14.1307H6.14151V14.2691" fill="white"/>
<path d="M3.48828 14.1773V14.0389H6.14151V14.1773" fill="white"/>
<path d="M3.48828 14.0855V13.9471H6.14151V14.0855" fill="white"/>
<path d="M3.48828 13.9918V13.8533H6.14151V13.9918" fill="white"/>
<path d="M3.48828 13.9V13.7615L6.14151 13.7636V13.9" fill="white"/>
<path d="M3.48828 13.8079V13.6715H6.14151V13.8079" fill="white"/>
<path d="M3.48828 13.7183V13.5799H6.14151V13.7183" fill="white"/>
<path d="M3.48828 13.6246V13.4861H6.14151V13.6246" fill="white"/>
<path d="M3.48828 13.5328V13.3943H6.14151V13.5328" fill="white"/>
<path d="M3.48828 13.441V13.3025H6.14151V13.441" fill="white"/>
<path d="M3.48828 13.3492V13.2107H6.14151V13.3492" fill="white"/>
<path d="M3.48828 13.2554V13.117H6.14151V13.2554" fill="white"/>
<path d="M3.48828 13.1636V13.0252H6.14151V13.1636" fill="white"/>
<path d="M3.48828 13.0716V12.9353H6.14151V13.0716" fill="white"/>
<path d="M3.48828 12.9799V12.8436H6.14151V12.982" fill="white"/>
<path d="M3.48828 12.8882V12.7498H6.14151V12.8882" fill="white"/>
<path d="M3.48828 12.7965V12.658H6.14151V12.7965" fill="white"/>
<path d="M3.48828 12.7046V12.5661H6.14151V12.7046" fill="white"/>
<path d="M3.48828 12.6129V12.4744H6.14151V12.6129" fill="white"/>
<path d="M3.48828 12.5191V12.3807H6.14151V12.5191" fill="white"/>
<path d="M3.48828 12.4273V12.2889H6.14151V12.4273" fill="white"/>
<path d="M3.48828 12.3354V12.1969L6.14151 12.199V12.3354" fill="white"/>
<path d="M3.48828 12.2436V12.1072H6.14151V12.2436" fill="white"/>
<path d="M3.48828 12.1539V12.0154H6.14151V12.1539" fill="white"/>
<path d="M3.48828 12.0601V11.9217H6.14151V12.0601" fill="white"/>
<path d="M3.48828 11.9685V11.8301H6.14151V11.9685" fill="white"/>
<path d="M3.48828 11.8765V11.7381H6.14151V11.8765" fill="white"/>
<path d="M3.48828 11.7847V11.6463H6.14151V11.7847" fill="white"/>
<path d="M3.48828 11.691V11.5525H6.14151V11.691" fill="white"/>
<path d="M3.48828 11.5994V11.4609H6.14151V11.5994" fill="white"/>
<path d="M3.48828 11.507V11.3707H6.14151V11.507" fill="white"/>
<path d="M3.48828 11.4175V11.2791H6.14151V11.4175" fill="white"/>
<path d="M3.48828 11.3238V11.1854H6.14151V11.3238" fill="white"/>
<path d="M3.48828 11.232V11.0936H6.14151V11.232" fill="white"/>
<path d="M3.48828 11.14V11.0016H6.14151V11.14" fill="white"/>
<path d="M3.48828 11.0484V10.91H6.14151V11.0484" fill="white"/>
<path d="M3.48828 10.9547V10.8162H6.14151V10.9547" fill="white"/>
<path d="M3.48828 10.8629V10.7244H6.14151V10.8629" fill="white"/>
<path d="M3.48828 10.7704V10.7578H6.14151V10.7704" fill="white"/>
</g>
<path d="M21.5963 9.37695H20.6328V19.3658H21.5963V9.37695Z" fill="white"/>
<mask id="mask36_4494_98867" style="mask-type:luminance" maskUnits="userSpaceOnUse" x="20" y="9" width="2" height="11">
<path d="M21.5963 9.37695H20.6328V19.3658H21.5963V9.37695Z" fill="white"/>
</mask>
<g mask="url(#mask36_4494_98867)">
<path d="M20.6328 19.3652V19.3778H21.5963V19.3652" fill="white"/>
<path d="M20.6328 19.4254V19.2891H21.5963V19.4254" fill="white"/>
<path d="M20.6328 19.3338V19.1953H21.5963V19.3338" fill="white"/>
<path d="M20.6328 19.242V19.1035H21.5963V19.242" fill="white"/>
<path d="M20.6328 19.1502V19.0117H21.5963V19.1502" fill="white"/>
<path d="M20.6328 19.0584V18.9199H21.5963V19.0584" fill="white"/>
<path d="M20.6328 18.9646V18.8262H21.5963V18.9646" fill="white"/>
<path d="M20.6328 18.8728V18.7344H21.5963V18.8728" fill="white"/>
<path d="M20.6328 18.781V18.6426H21.5963V18.781" fill="white"/>
<path d="M20.6328 18.6891V18.5527H21.5963V18.6891" fill="white"/>
<path d="M20.6328 18.5953V18.459H21.5963V18.5953" fill="white"/>
<path d="M20.6328 18.5056V18.3672H21.5963V18.5056" fill="white"/>
<path d="M20.6328 18.4138V18.2754H21.5963V18.4138" fill="white"/>
<path d="M20.6328 18.322V18.1836H21.5963V18.322" fill="white"/>
<path d="M20.6328 18.2283V18.0898H21.5963V18.2283" fill="white"/>
<path d="M20.6328 18.1365V17.998H21.5963V18.1365" fill="white"/>
<path d="M20.6328 18.0447V17.9062H21.5963V18.0447" fill="white"/>
<path d="M20.6328 17.9529V17.8145H21.5963V17.9529" fill="white"/>
<path d="M20.6328 17.859V17.7227H21.5963V17.859" fill="white"/>
<path d="M20.6328 17.7693V17.6309H21.5963V17.7693" fill="white"/>
<path d="M20.6329 17.6774V17.539H21.5964V17.6774" fill="white"/>
<path d="M20.6328 17.5857V17.4473H21.5963V17.5857" fill="white"/>
<path d="M20.6328 17.492V17.3535H21.5963V17.492" fill="white"/>
<path d="M20.6328 17.4002V17.2617H21.5963V17.4002" fill="white"/>
<path d="M20.6329 17.3082V17.1698H21.5964V17.3082" fill="white"/>
<path d="M20.6328 17.2166V17.0781H21.5963V17.2166" fill="white"/>
<path d="M20.6328 17.1246V16.9883H21.5963V17.1246" fill="white"/>
<path d="M20.6328 17.0309V16.8945H21.5963V17.0309" fill="white"/>
<path d="M20.6328 16.9414V16.8029H21.5963V16.9414" fill="white"/>
<path d="M20.6328 16.8494V16.7109H21.5963V16.8494" fill="white"/>
<path d="M20.6328 16.7576V16.6191H21.5963V16.7576" fill="white"/>
<path d="M20.6328 16.6638V16.5254H21.5963V16.6638" fill="white"/>
<path d="M20.6328 16.5722V16.4338H21.5963V16.5722" fill="white"/>
<path d="M20.6328 16.4802V16.3418H21.5963V16.4802" fill="white"/>
<path d="M20.6328 16.3884V16.25L21.5963 16.2521V16.3884" fill="white"/>
<path d="M20.6328 16.2945V16.1582H21.5963V16.2945" fill="white"/>
<path d="M20.6329 16.2049V16.0664H21.5964V16.2049" fill="white"/>
<path d="M20.6328 16.1129V15.9744H21.5963V16.1129" fill="white"/>
<path d="M20.6328 16.0213V15.8828H21.5963V16.0213" fill="white"/>
<path d="M20.6328 15.9275V15.7891H21.5963V15.9275" fill="white"/>
<path d="M20.6329 15.8357V15.6973H21.5964V15.8357" fill="white"/>
<path d="M20.6328 15.7439V15.6055H21.5963V15.7439" fill="white"/>
<path d="M20.6328 15.6502V15.5117H21.5963V15.6502" fill="white"/>
<path d="M20.6328 15.5582V15.4219H21.5963V15.5582" fill="white"/>
<path d="M20.6328 15.4685V15.3301H21.5963V15.4685" fill="white"/>
<path d="M20.6328 15.3767V15.2383H21.5963V15.3767" fill="white"/>
<path d="M20.6328 15.283V15.1445H21.5963V15.283" fill="white"/>
<path d="M20.6328 15.1912V15.0527H21.5963V15.1912" fill="white"/>
<path d="M20.6328 15.0992V14.9607H21.5963V15.0992" fill="white"/>
<path d="M20.6328 15.0076V14.8691H21.5963V15.0076" fill="white"/>
<path d="M20.6328 14.9138V14.7754H21.5963V14.9138" fill="white"/>
<path d="M20.6328 14.8219V14.6855H21.5963V14.8219" fill="white"/>
<path d="M20.6329 14.7303V14.5939H21.5964V14.7303" fill="white"/>
<path d="M20.6328 14.6404V14.502H21.5963V14.6404" fill="white"/>
<path d="M20.6328 14.5486V14.4102H21.5963V14.5486" fill="white"/>
<path d="M20.6328 14.4548V14.3164H21.5963V14.4548" fill="white"/>
<path d="M20.6329 14.3632V14.2247H21.5964V14.3632" fill="white"/>
<path d="M20.6328 14.2713V14.1328H21.5963V14.2713" fill="white"/>
<path d="M20.6328 14.1795V14.041H21.5963V14.1795" fill="white"/>
<path d="M20.6328 14.0857V13.9473H21.5963V14.0857" fill="white"/>
<path d="M20.6328 13.9938V13.8574H21.5963V13.9938" fill="white"/>
<path d="M20.6328 13.9041V13.7656H21.5963V13.9041" fill="white"/>
<path d="M20.6328 13.8103V13.6719H21.5963V13.8103" fill="white"/>
<path d="M20.6328 13.7185V13.5801H21.5963V13.7185" fill="white"/>
<path d="M20.6328 13.6267V13.4883H21.5963V13.6267" fill="white"/>
<path d="M20.6328 13.5349V13.3965H21.5963V13.5349" fill="white"/>
<path d="M20.6328 13.4431V13.3047H21.5963V13.4431" fill="white"/>
<path d="M20.6328 13.3494V13.2109H21.5963V13.3494" fill="white"/>
<path d="M20.6328 13.2574V13.1211H21.5963V13.2574" fill="white"/>
<path d="M20.6328 13.1656V13.0293H21.5963V13.1656" fill="white"/>
<path d="M20.6328 13.0759V12.9375H21.5963V13.0759" fill="white"/>
<path d="M20.6328 12.9822V12.8438H21.5963V12.9822" fill="white"/>
<path d="M20.6328 12.8904V12.752H21.5963V12.8904" fill="white"/>
<path d="M20.6328 12.7986V12.6602H21.5963V12.7986" fill="white"/>
<path d="M20.6328 12.7068V12.5684H21.5963V12.7068" fill="white"/>
<path d="M20.6328 12.6131V12.4746H21.5963V12.6131" fill="white"/>
<path d="M20.6328 12.5213V12.385H21.5963V12.5213" fill="white"/>
<path d="M20.6329 12.4292V12.2928H21.5964V12.4292" fill="white"/>
<path d="M20.6328 12.3396V12.2012H21.5963V12.3396" fill="white"/>
<path d="M20.6328 12.2459V12.1074H21.5963V12.2459" fill="white"/>
<path d="M20.6328 12.1541V12.0156H21.5963V12.1541" fill="white"/>
<path d="M20.6328 12.0623V11.9238H21.5963V12.0623" fill="white"/>
<path d="M20.6328 11.9705V11.832H21.5963V11.9705" fill="white"/>
<path d="M20.6328 11.8767V11.7383H21.5963V11.8767" fill="white"/>
<path d="M20.6328 11.7849V11.6465H21.5963V11.7849" fill="white"/>
<path d="M20.6329 11.6929V11.5566H21.5964V11.6929" fill="white"/>
<path d="M20.6328 11.6033V11.4648H21.5963V11.6033" fill="white"/>
<path d="M20.6328 11.5095V11.3711H21.5963V11.5095" fill="white"/>
<path d="M20.6328 11.4177V11.2793H21.5963V11.4177" fill="white"/>
<path d="M20.6329 11.3258V11.1874H21.5964V11.3258" fill="white"/>
<path d="M20.6328 11.2341V11.0957H21.5963V11.2341" fill="white"/>
<path d="M20.6328 11.1404V11.002H21.5963V11.1404" fill="white"/>
<path d="M20.6328 11.0486V10.9102H21.5963V11.0486" fill="white"/>
<path d="M20.6328 10.9569V10.8205H21.5963V10.9569" fill="white"/>
<path d="M20.6328 10.8649V10.7285H21.5963V10.8649" fill="white"/>
<path d="M20.6328 10.7752V10.6367H21.5963V10.7752" fill="white"/>
<path d="M20.6328 10.6814V10.543H21.5963V10.6814" fill="white"/>
<path d="M20.6328 10.5898V10.4514H21.5963V10.5898" fill="white"/>
<path d="M20.6328 10.4978V10.3594H21.5963V10.4978" fill="white"/>
<path d="M20.6328 10.406V10.2676H21.5963V10.406" fill="white"/>
<path d="M20.6328 10.3123V10.1738H21.5963V10.3123" fill="white"/>
<path d="M20.6328 10.2207V10.0822H21.5963V10.2207" fill="white"/>
<path d="M20.6328 10.1283V9.99199H21.5963V10.1283" fill="white"/>
<path d="M20.6328 10.0388V9.90039H21.5963V10.0388" fill="white"/>
<path d="M20.6328 9.94508V9.80664H21.5963V9.94508" fill="white"/>
<path d="M20.6329 9.85333V9.71489H21.5964V9.85333" fill="white"/>
<path d="M20.6328 9.76129V9.62285H21.5963V9.76129" fill="white"/>
<path d="M20.6328 9.66969V9.53125H21.5963V9.66969" fill="white"/>
<path d="M20.6328 9.57594V9.4375H21.5963V9.57594" fill="white"/>
<path d="M20.6328 9.48415V9.3457H21.5963V9.48415" fill="white"/>
<path d="M20.6328 9.39164V9.37695H21.5963V9.39164" fill="white"/>
</g>
<path d="M22.3336 19.8505L21.834 20.6728L3.54688 10.1218L4.02756 9.28906L22.3336 19.8505Z" fill="white"/>
<mask id="mask37_4494_98867" style="mask-type:luminance" maskUnits="userSpaceOnUse" x="3" y="9" width="20" height="12">
<path d="M22.3336 19.8505L21.834 20.6728L3.54688 10.1218L4.02756 9.28906L22.3336 19.8505Z" fill="white"/>
</mask>
<g mask="url(#mask37_4494_98867)">
<path d="M3.54297 20.6743V20.668H22.3318V20.6743" fill="white"/>
<path d="M3.54297 20.7106V20.5742H22.3318V20.7127" fill="white"/>
<path d="M3.54309 20.621V20.4825H22.3319V20.621" fill="white"/>
<path d="M3.54297 20.5291V20.3906H22.3318V20.5291" fill="white"/>
<path d="M3.54297 20.4373V20.2988H22.3318V20.4373" fill="white"/>
<path d="M3.54297 20.3435V20.2051H22.3318V20.3435" fill="white"/>
<path d="M3.54309 20.2518V20.1134L22.3319 20.1155V20.2518" fill="white"/>
<path d="M3.54297 20.1599V20.0215L22.3318 20.0236V20.1599" fill="white"/>
<path d="M3.54297 20.0681V19.9297L22.3318 19.9318V20.0702" fill="white"/>
<path d="M3.54297 19.9742V19.8379H22.3318V19.9763" fill="white"/>
<path d="M3.54297 19.8845V19.7461H22.3318V19.8845" fill="white"/>
<path d="M3.54297 19.7927V19.6543H22.3318V19.7927" fill="white"/>
<path d="M3.54297 19.7009V19.5625H22.3318V19.7009" fill="white"/>
<path d="M3.54297 19.6072V19.4688H22.3318V19.6072" fill="white"/>
<path d="M3.54297 19.5154V19.377H22.3318V19.5154" fill="white"/>
<path d="M3.54297 19.4234V19.285L22.3318 19.2871V19.4234" fill="white"/>
<path d="M3.54297 19.3318V19.1934L22.3318 19.1955V19.3339" fill="white"/>
<path d="M3.54297 19.2379V19.1016H22.3318V19.24" fill="white"/>
<path d="M3.54297 19.1461V19.0098H22.3318V19.1482" fill="white"/>
<path d="M3.54297 19.0564V18.918H22.3318V19.0564" fill="white"/>
<path d="M3.54297 18.9646V18.8262H22.3318V18.9646" fill="white"/>
<path d="M3.54297 18.8709V18.7324H22.3318V18.8709" fill="white"/>
<path d="M3.54297 18.7791V18.6406H22.3318V18.7791" fill="white"/>
<path d="M3.54297 18.6873V18.5488L22.3318 18.5509V18.6873" fill="white"/>
<path d="M3.54297 18.5955V18.457L22.3318 18.4591V18.5955" fill="white"/>
<path d="M3.54297 18.5035V18.3672H22.3318V18.5056" fill="white"/>
<path d="M3.54297 18.4098V18.2734H22.3318V18.4119" fill="white"/>
<path d="M3.54297 18.3201V18.1816H22.3318V18.3201" fill="white"/>
<path d="M3.54297 18.2283V18.0898H22.3318V18.2283" fill="white"/>
<path d="M3.54297 18.1345V17.9961H22.3318V18.1345" fill="white"/>
<path d="M3.54297 18.0427V17.9043H22.3318V18.0427" fill="white"/>
<path d="M3.54297 17.9509V17.8125H22.3318V17.9509" fill="white"/>
<path d="M3.54297 17.8591V17.7207L22.3318 17.7228V17.8591" fill="white"/>
<path d="M3.54297 17.7673V17.6289L22.3318 17.631V17.7694" fill="white"/>
<path d="M3.54297 17.6735V17.5371H22.3318V17.6756" fill="white"/>
<path d="M3.54309 17.5836V17.4452H22.3319V17.5836" fill="white"/>
<path d="M3.54297 17.492V17.3535H22.3318V17.492" fill="white"/>
<path d="M3.54297 17.3982V17.2598H22.3318V17.3982" fill="white"/>
<path d="M3.54297 17.3064V17.168H22.3318V17.3064" fill="white"/>
<path d="M3.54309 17.2145V17.076H22.3319V17.2145" fill="white"/>
<path d="M3.54297 17.1228V16.9844L22.3318 16.9865V17.1228" fill="white"/>
<path d="M3.54297 17.0291V16.8906L22.3318 16.8927V17.0312" fill="white"/>
<path d="M3.54297 16.9371V16.8008H22.3318V16.9392" fill="white"/>
<path d="M3.54297 16.8455V16.7092H22.3318V16.8476" fill="white"/>
<path d="M3.54297 16.7556V16.6172H22.3318V16.7556" fill="white"/>
<path d="M3.54297 16.6638V16.5254H22.3318V16.6638" fill="white"/>
<path d="M3.54297 16.5701V16.4316H22.3318V16.5701" fill="white"/>
<path d="M3.54297 16.4785V16.34H22.3318V16.4785" fill="white"/>
<path d="M3.54297 16.3865V16.248L22.3318 16.2501V16.3865" fill="white"/>
<path d="M3.54297 16.2947V16.1562L22.3318 16.1583V16.2947" fill="white"/>
<path d="M3.54297 16.2009V16.0625L22.3318 16.0646V16.203" fill="white"/>
<path d="M3.54309 16.109V15.9727H22.3319V16.1111" fill="white"/>
<path d="M3.54297 16.0191V15.8807H22.3318V16.0191" fill="white"/>
<path d="M3.54297 15.9275V15.7891H22.3318V15.9275" fill="white"/>
<path d="M3.54297 15.8339V15.6955H22.3318V15.8339" fill="white"/>
<path d="M3.54309 15.7419V15.6035H22.3319V15.7419" fill="white"/>
<path d="M3.54297 15.6502V15.5117H22.3318V15.6502" fill="white"/>
<path d="M3.54297 15.5564V15.418L22.3318 15.4201V15.5564" fill="white"/>
<path d="M3.54297 15.4648V15.3264L22.3318 15.3285V15.4669" fill="white"/>
<path d="M3.54297 15.3725V15.2361H22.3318V15.3746" fill="white"/>
<path d="M3.54297 15.283V15.1445H22.3318V15.283" fill="white"/>
<path d="M3.54297 15.1892V15.0508H22.3318V15.1892" fill="white"/>
<path d="M3.54297 15.0974V14.959H22.3318V15.0974" fill="white"/>
<path d="M3.54297 15.0054V14.867H22.3318V15.0054" fill="white"/>
<path d="M3.54297 14.9138V14.7754H22.3318V14.9138" fill="white"/>
<path d="M3.54297 14.8201V14.6816L22.3318 14.6837V14.8201" fill="white"/>
<path d="M3.54297 14.7283V14.5898L22.3318 14.5919V14.7283" fill="white"/>
<path d="M3.54309 14.6365V14.5002H22.3319V14.6386" fill="white"/>
<path d="M3.54297 14.5445V14.4082H22.3318V14.5466" fill="white"/>
<path d="M3.54297 14.4548V14.3164H22.3318V14.4548" fill="white"/>
<path d="M3.54297 14.3611V14.2227H22.3318V14.3611" fill="white"/>
<path d="M3.54309 14.2694V14.131H22.3319V14.2694" fill="white"/>
<path d="M3.54297 14.1775V14.0391H22.3318V14.1775" fill="white"/>
<path d="M3.54297 14.0857V13.9473H22.3318V14.0857" fill="white"/>
<path d="M3.54297 13.992V13.8535L22.3318 13.8556V13.992" fill="white"/>
<path d="M3.54309 13.9002V13.7618L22.3319 13.7639V13.9023" fill="white"/>
<path d="M3.54297 13.8082V13.6719H22.3318V13.8103" fill="white"/>
<path d="M3.54297 13.7166V13.5781H22.3318V13.7166" fill="white"/>
<path d="M3.54297 13.6248V13.4863H22.3318V13.6248" fill="white"/>
<path d="M3.54297 13.533V13.3945H22.3318V13.533" fill="white"/>
<path d="M3.54297 13.4412V13.3027H22.3318V13.4412" fill="white"/>
<path d="M3.54297 13.3494V13.2109H22.3318V13.3494" fill="white"/>
<path d="M3.54297 13.2556V13.1172L22.3318 13.1193V13.2556" fill="white"/>
<path d="M3.54297 13.1638V13.0254L22.3318 13.0275V13.1659" fill="white"/>
<path d="M3.54297 13.0719V12.9355H22.3318V13.074" fill="white"/>
<path d="M3.54297 12.9801V12.8438H22.3318V12.9822" fill="white"/>
<path d="M3.54297 12.8884V12.75H22.3318V12.8884" fill="white"/>
<path d="M3.54297 12.7966V12.6582H22.3318V12.7966" fill="white"/>
<path d="M3.54297 12.7048V12.5664H22.3318V12.7048" fill="white"/>
<path d="M3.54297 12.6131V12.4746H22.3318V12.6131" fill="white"/>
<path d="M3.54297 12.5193V12.3809L22.3318 12.383V12.5193" fill="white"/>
<path d="M3.54297 12.4275V12.2891L22.3318 12.2912V12.4275" fill="white"/>
<path d="M3.54309 12.3354V12.1991H22.3319V12.3375" fill="white"/>
<path d="M3.54297 12.2438V12.1074H22.3318V12.2459" fill="white"/>
<path d="M3.54297 12.1541V12.0156H22.3318V12.1541" fill="white"/>
<path d="M3.54297 12.0603V11.9219H22.3318V12.0603" fill="white"/>
<path d="M3.54297 11.9685V11.8301H22.3318V11.9685" fill="white"/>
<path d="M3.54297 11.8767V11.7383H22.3318V11.8767" fill="white"/>
<path d="M3.54297 11.783V11.6445H22.3318V11.783" fill="white"/>
<path d="M3.54297 11.6912V11.5527L22.3318 11.5548V11.6912" fill="white"/>
<path d="M3.54297 11.5994V11.4609L22.3318 11.463V11.6015" fill="white"/>
<path d="M3.54297 11.5074V11.3711H22.3318V11.5095" fill="white"/>
<path d="M3.54297 11.4158V11.2773H22.3318V11.4158" fill="white"/>
<path d="M3.54297 11.324V11.1855H22.3318V11.324" fill="white"/>
<path d="M3.54309 11.2321V11.0936H22.3319V11.2321" fill="white"/>
<path d="M3.54297 11.1404V11.002H22.3318V11.1404" fill="white"/>
<path d="M3.54297 11.0466V10.9082H22.3318V11.0466" fill="white"/>
<path d="M3.54297 10.9548V10.8164L22.3318 10.8185V10.9548" fill="white"/>
<path d="M3.54309 10.8629V10.7245L22.3319 10.7266V10.8629" fill="white"/>
<path d="M3.54297 10.7711L3.54507 10.6348H22.3318V10.7732" fill="white"/>
<path d="M3.54688 10.6793V10.543H22.3336V10.6814" fill="white"/>
<path d="M3.54688 10.5877V10.4492H22.3336V10.5877" fill="white"/>
<path d="M3.54688 10.4961V10.3576H22.3336V10.4961" fill="white"/>
<path d="M3.54688 10.4041V10.2656H22.3336V10.4041" fill="white"/>
<path d="M3.54688 10.3123V10.1738H22.3336V10.3123" fill="white"/>
<path d="M3.54688 10.2185V10.0801L22.3336 10.0822V10.2185" fill="white"/>
<path d="M3.54688 10.1269V9.98849L22.3336 9.99059V10.1269" fill="white"/>
<path d="M3.54688 10.0349V9.89648L22.3336 9.89858V10.037" fill="white"/>
<path d="M3.54688 9.94103V9.80469H22.3336V9.94313" fill="white"/>
<path d="M3.54688 9.85133V9.71289H22.3336V9.85133" fill="white"/>
<path d="M3.54688 9.75954V9.62109H22.3336V9.75954" fill="white"/>
<path d="M3.54688 9.66753V9.52908H22.3336V9.66753" fill="white"/>
<path d="M3.54688 9.57594V9.4375H22.3336V9.57594" fill="white"/>
<path d="M3.54688 9.48219V9.34375H22.3336V9.48219" fill="white"/>
<path d="M3.54688 9.3904V9.25195L22.3336 9.25405V9.3904" fill="white"/>
<path d="M3.54688 9.29745V9.28906H22.3336V9.29955" fill="white"/>
</g>
<path d="M4.81583 23.451L5.17687 23.6586L5.53791 23.8663V24.2837V24.6991L5.17687 24.9088L4.81583 25.1165L4.45479 24.9088L4.09375 24.6991V24.2837V23.8663L4.45479 23.6586L4.81583 23.451Z" fill="white"/>
<mask id="mask38_4494_98867" style="mask-type:luminance" maskUnits="userSpaceOnUse" x="4" y="23" width="2" height="3">
<path d="M4.81583 23.451L5.17687 23.6586L5.53791 23.8663V24.2837V24.6991L5.17687 24.9088L4.81583 25.1165L4.45479 24.9088L4.09375 24.6991V24.2837V23.8663L4.45479 23.6586L4.81583 23.451Z" fill="white"/>
</mask>
<g mask="url(#mask38_4494_98867)">
<path d="M4.09375 25.1153V25.0838H5.53791V25.1153" fill="white"/>
<path d="M4.09375 25.1304V24.992H5.53791V25.1304" fill="white"/>
<path d="M4.09375 25.0385V24.9001H5.53791V25.0385" fill="white"/>
<path d="M4.09375 24.9468V24.8084H5.53791V24.9468" fill="white"/>
<path d="M4.09375 24.8531V24.7147H5.53791V24.8531" fill="white"/>
<path d="M4.09375 24.7613V24.6229H5.53791V24.7613" fill="white"/>
<path d="M4.09375 24.6696V24.5332H5.53791V24.6696" fill="white"/>
<path d="M4.09375 24.5776V24.4412H5.53791V24.5776" fill="white"/>
<path d="M4.09375 24.4879V24.3494H5.53791V24.4879" fill="white"/>
<path d="M4.09375 24.3941V24.2557H5.53791V24.3941" fill="white"/>
<path d="M4.09375 24.3025V24.1641H5.53791V24.3025" fill="white"/>
<path d="M4.09375 24.2105V24.0721H5.53791V24.2105" fill="white"/>
<path d="M4.09375 24.1187V23.9803H5.53791V24.1187" fill="white"/>
<path d="M4.09375 24.025V23.8865H5.53791V24.025" fill="white"/>
<path d="M4.09375 23.9332V23.7947L5.53791 23.7968V23.9332" fill="white"/>
<path d="M4.09375 23.841V23.7047H5.53791V23.841" fill="white"/>
<path d="M4.09375 23.7515V23.6131H5.53791V23.7515" fill="white"/>
<path d="M4.09375 23.6578V23.5193H5.53791V23.6578" fill="white"/>
<path d="M4.09375 23.566V23.4275H5.53791V23.566" fill="white"/>
<path d="M4.09375 23.4741V23.451H5.53791V23.4741" fill="white"/>
</g>
<path d="M21.1166 4.64822L21.4777 4.85589L21.8366 5.06565V5.48097V5.8984L21.4777 6.10606L21.1166 6.31373L20.7556 6.10606L20.3945 5.8984V5.48097V5.06565L20.7556 4.85589L21.1166 4.64822Z" fill="white"/>
<mask id="mask39_4494_98867" style="mask-type:luminance" maskUnits="userSpaceOnUse" x="20" y="4" width="2" height="3">
<path d="M21.1166 4.64822L21.4777 4.85589L21.8366 5.06565V5.48097V5.8984L21.4777 6.10606L21.1166 6.31373L20.7556 6.10606L20.3945 5.8984V5.48097V5.06565L20.7556 4.85589L21.1166 4.64822Z" fill="white"/>
</mask>
<g mask="url(#mask39_4494_98867)">
<path d="M20.3945 6.31467V6.30838H21.8366V6.31467" fill="white"/>
<path d="M20.3945 6.35307V6.21463L21.8366 6.21673V6.35307" fill="white"/>
<path d="M20.3945 6.26113V6.12479H21.8366V6.26113" fill="white"/>
<path d="M20.3945 6.17124V6.03279H21.8366V6.17124" fill="white"/>
<path d="M20.3945 6.07963V5.94119H21.8366V6.07963" fill="white"/>
<path d="M20.3945 5.98589V5.84744H21.8366V5.98589" fill="white"/>
<path d="M20.3947 5.8942V5.75576H21.8367V5.8942" fill="white"/>
<path d="M20.3945 5.8021V5.66365H21.8366V5.8021" fill="white"/>
<path d="M20.3945 5.71049V5.57205H21.8366V5.71049" fill="white"/>
<path d="M20.3945 5.61674V5.4783H21.8366V5.61674" fill="white"/>
<path d="M20.3945 5.5248V5.38846H21.8366V5.5248" fill="white"/>
<path d="M20.3945 5.43483V4.64822H21.8366V5.43483" fill="white"/>
</g>
<path d="M21.1178 13.373L22.4444 14.1387V15.6699L21.1178 16.4356L19.7891 15.6699V14.1387L21.1178 13.373Z" fill="white"/>
<mask id="mask40_4494_98867" style="mask-type:luminance" maskUnits="userSpaceOnUse" x="19" y="13" width="4" height="4">
<path d="M21.1178 13.373L22.4444 14.1387V15.6699L21.1178 16.4356L19.7891 15.6699V14.1387L21.1178 13.373Z" fill="white"/>
</mask>
<g mask="url(#mask40_4494_98867)">
<path d="M19.7891 16.4356V16.4335H22.4444V16.4356" fill="white"/>
<path d="M19.7891 16.4802V16.3418H22.4444V16.4802" fill="white"/>
<path d="M19.7891 16.3865V16.248L22.4444 16.2501V16.3865" fill="white"/>
<path d="M19.7891 16.2945V16.1582H22.4444V16.2945" fill="white"/>
<path d="M19.7891 16.205V16.0666H22.4444V16.205" fill="white"/>
<path d="M19.7891 16.1131V15.9746H22.4444V16.1131" fill="white"/>
<path d="M19.7891 16.0213V15.8828H22.4444V16.0213" fill="white"/>
<path d="M19.7891 15.9275V15.7891H22.4444V15.9275" fill="white"/>
<path d="M19.7891 15.8359V15.6975H22.4444V15.8359" fill="white"/>
<path d="M19.7891 15.7439V15.6055H22.4444V15.7439" fill="white"/>
<path d="M19.7891 15.6521V15.5137H22.4444V15.6521" fill="white"/>
<path d="M19.7891 15.5582V15.4219H22.4444V15.5582" fill="white"/>
<path d="M19.7891 15.4665V15.3301H22.4444V15.4686" fill="white"/>
<path d="M19.7891 15.3765V15.2381H22.4444V15.3765" fill="white"/>
<path d="M19.7891 15.2849V15.1465H22.4444V15.2849" fill="white"/>
<path d="M19.7891 15.1912V15.0527H22.4444V15.1912" fill="white"/>
<path d="M19.7891 15.0994V14.9609H22.4444V15.0994" fill="white"/>
<path d="M19.7891 15.0076V14.8691H22.4444V15.0076" fill="white"/>
<path d="M19.7891 14.9138V14.7754H22.4444V14.9138" fill="white"/>
<path d="M19.7891 14.8219V14.6855H22.4444V14.8219" fill="white"/>
<path d="M19.7891 14.7301V14.5938H22.4444V14.7301" fill="white"/>
<path d="M19.7891 14.6404V14.502H22.4444V14.6404" fill="white"/>
<path d="M19.7891 14.5466V14.4082H22.4444V14.5466" fill="white"/>
<path d="M19.7891 14.4548V14.3164H22.4444V14.4548" fill="white"/>
<path d="M19.7891 14.3629V14.2244H22.4444V14.3629" fill="white"/>
<path d="M19.7891 14.2713V14.1328H22.4444V14.2713" fill="white"/>
<path d="M19.7891 14.1775V14.0391H22.4444V14.1775" fill="white"/>
<path d="M19.7891 14.0857V13.9473H22.4444V14.0857" fill="white"/>
<path d="M19.7891 13.9939V13.8576H22.4444V13.9939" fill="white"/>
<path d="M19.7891 13.9041V13.7656H22.4444V13.9041" fill="white"/>
<path d="M19.7891 13.8123V13.6738H22.4444V13.8123" fill="white"/>
<path d="M19.7891 13.7185V13.5801H22.4444V13.7185" fill="white"/>
<path d="M19.7891 13.6269V13.4884H22.4444V13.6269" fill="white"/>
<path d="M19.7891 13.5349V13.3965H22.4444V13.5349" fill="white"/>
<path d="M19.7891 13.4423V13.373H22.4444V13.4423" fill="white"/>
</g>
</g>
<defs>
<clipPath id="clip0_4494_98867">
<rect width="150" height="30" fill="white"/>
</clipPath>
</defs>
</svg>
